<?xml version="1.0" encoding="utf-8"?>
<!-- Generator: Adobe Illustrator 24.2.0, SVG Export Plug-In . SVG Version: 6.00 Build 0)  -->
<svg version="1.1" xmlns="http://www.w3.org/2000/svg" xmlns:xlink="http://www.w3.org/1999/xlink" x="0px" y="0px"
	 viewBox="0 0 100.6 107.8" style="enable-background:new 0 0 100.6 107.8;" xml:space="preserve">
<style type="text/css">
	.st0{display:none;fill:#FFFFFF;}
	.st1{fill:#85BECC;}
	.st2{fill:#FFC024;}
	.st3{fill:#B5BEC6;}
	.st4{fill:#FC8F1A;}
	.st5{fill:#1AAD83;}
	.st6{fill:#FFFF76;}
	.st7{fill:#2ECC8F;}
	.st8{fill:#95BCC4;}
	.st9{fill:#6D5E61;}
	.st10{fill:#FF7B22;}
	.st11{fill:#F07565;}
	.st12{fill:#9C4818;}
	.st13{fill:#FC3535;}
	.st14{fill:#DB193A;}
	.st15{fill:#FFFFFF;}
	.st16{fill:#FCA870;}
	.st17{fill:#4691B2;}
	.st18{fill:#58EDC6;}
	.st19{fill:#AA9FA1;}
	.st20{fill:#6395A5;}
	.st21{fill:#B3B3BA;}
	.st22{fill:#E59339;}
	.st23{fill:#C1C1C1;}
	.st24{fill:#FFD469;}
	.st25{fill:#6FB259;}
	.st26{fill:#FF7443;}
	.st27{fill:#2FC0B1;}
	.st28{fill:#9FFFE4;}
	.st29{fill:#2F6D93;}
	.st30{fill:#C9D6F2;}
	.st31{fill:#ACB2E5;}
	.st32{fill:#EF520C;}
	.st33{fill:#FFE3A4;}
	.st34{fill:#443B3D;}
	.st35{fill:#84777B;}
	.st36{fill:#8E8EAF;}
	.st37{fill:#6D2309;}
</style>
<g id="BACKGROUND">
	<rect x="-198.8" y="-191.1" class="st0" width="500" height="500"/>
</g>
<g id="OBJECTS">
	<ellipse class="st1" cx="46.7" cy="101.3" rx="41.8" ry="1.6"/>
	<g>
		<path class="st2" d="M30,58.1c-0.7,0.1-1.3,0.3-2,0.5c-0.9,0.3-1.9,0.6-2.8,1c-3.3,1.4-6.4,3.4-9,5.9c-1.4,1.3-2.7,2.7-3.7,4.4
			c-0.4,0.7-0.7,1.6-0.8,2.5c0.1,0.2,0.2,0.4,0.3,0.6c1.2,1.4,4.2,1.5,5.7,1.8c2.1,0.4,4.3,0.8,6.4,1.3c0-0.1,0.1-0.2,0.2-0.2
			c2.1-5.9,4.2-11.8,7-17.5C31,58.1,30.5,58.1,30,58.1z M24.1,69.9c-0.2,1-0.2,2.5-0.9,3.3c-0.8,0.8-2,0.4-3,0.3
			c-0.8-0.1-2.1,0-2.7-0.6c-0.3-0.2-0.4-0.5-0.4-0.8c-0.1-1.4,2.2-3.3,3-3.9c0.6-0.5,3-2.4,3.9-1.5c0.1,0,0.1,0,0.1,0.1
			c0,0.1,0.1,0.2,0.1,0.2c0,0.1,0,0.1,0.1,0.2c0,0,0,0,0,0c0.1,0.3,0.1,0.5,0.1,0.8C24.4,68.6,24.3,69.2,24.1,69.9z"/>
		<path class="st2" d="M33.9,43.7c0.2-0.6,0.7-1.1,0.8-1.8c0.2-0.8,0.1-1.6,0-2.4c-0.9,0.3-1.3,0.8-1.5,1.7
			C32.9,42.1,32.6,43.5,33.9,43.7z"/>
		<path class="st3" d="M32.1,47.8C32,47.8,32,47.9,32.1,47.8C32,47.9,32,47.9,32,47.9c0.1,0,0.1,0,0.2,0.1c0.2-1.2,0.5-2.5,1-3.7
			c-0.1,0-0.2-0.1-0.3-0.2c-0.1,0.5-0.2,1-0.3,1.5C32.4,46.3,32.3,47.1,32.1,47.8z"/>
		<path class="st3" d="M31.4,49.6c-0.1-1.9-0.2-4.2,0.1-6.1c-0.1-0.1-0.1-0.1,0-0.2c0,0,0,0,0,0c0-0.1,0.1-0.1,0.2-0.1
			c0.2-0.1,0.4-0.2,0.6-0.2c0-0.1,0-0.2,0-0.3c-0.2,0.1-0.4,0.1-0.5,0.1c-0.2,0-0.4,0.1-0.6,0.1c0.2,1.2,0,2.5,0,3.7c0,1,0,2,0,3
			C31.2,49.6,31.3,49.6,31.4,49.6z"/>
		<path class="st4" d="M34.7,44.3c0.1,0.1,0.3,0.1,0.4,0.2c0.9-0.9,0.7-2.8,0.9-4c-0.1-0.1-0.3-0.1-0.5-0.1c0,0-0.1,0-0.1,0
			c0.1,0.5,0,1.1-0.1,1.6c-0.1,0.6-0.4,1.5-0.9,2C34.5,44.2,34.6,44.3,34.7,44.3z"/>
		<path class="st5" d="M33.9,49.6c0.7,0.2,1.3,0.5,1.8,0.8c0.9-0.4,2-0.6,3.1-0.7c0-0.1,0-0.3,0-0.4c-0.9,0.3-1.9,0.6-2.8,0.7
			c-0.1,0-0.3-0.1-0.2-0.2c-0.4-0.2-0.9-0.5-1.3-0.7c-0.3-0.1-0.7-0.2-1.1-0.3C33.6,49,33.9,49.3,33.9,49.6z"/>
		<path class="st4" d="M31.9,49.5c0.4-0.1,0.8,0,1.2,0c-0.1-0.1-0.2-0.3-0.3-0.4c-0.2-0.3-0.5-0.4-0.8-0.7
			C31.9,48.8,31.9,49.1,31.9,49.5z"/>
		<path class="st6" d="M23.7,68.6c-0.1,0.8-0.3,1.6-0.5,2.3c0,0,0,0,0,0.1c-1,0-2-0.1-3-0.1h0c-0.6,0-1.2,0-1.7,0
			c0.1-0.1,0.1-0.1,0.2-0.2c0.4-0.5,0.8-1,1.3-1.4c0.5-0.5,2.9-2.7,3.9-2.2C23.8,67.6,23.8,68.1,23.7,68.6z"/>
		<path class="st2" d="M34,53.9c-0.4,0.6-0.7,1.2-1.1,1.8c-0.4,0.6-1,1.2-1.3,1.8c0,0,0,0,0,0c-0.4-0.2-0.9-0.2-1.4-0.1
			c-0.7,0.1-1.4,0.2-2.1,0.4c0.3-0.7-0.8-1.3-1.5-1.4c-0.5-0.1-1.2-0.2-1.5-0.7c-0.2-0.2-0.2-0.8-0.3-1.2c0-0.4,0-0.8,0-1.2
			c0-0.1,0-0.3,0-0.4c0.1-1.3,0.4-2.6,0.6-3.9c1.4-0.3,2.8-0.6,4.2-0.6c0.3,0,0.6,0,0.9,0c0,0.5,0,1,0.1,1.5
			c-0.3,0.2-0.6,0.4-0.9,0.7c-0.2,0.2-0.4,0.4-0.5,0.7c0,0,0,0,0,0c0,0-0.1,0.1-0.1,0.1c0,0.1-0.1,0.3-0.1,0.5c0,0.1,0,0.3,0,0.4
			c-0.2,0.1-0.3,0.3-0.5,0.5c-0.2,0.3-0.3,0.5-0.3,0.9c0,0,0,0.1,0,0.1c0,1,1.2,1.4,1.2,2.4c0,0.1,0,0.1,0.1,0.1
			c-0.1,0.3-0.1,0.5,0.1,0.8c0.2,0.3,0.6,0.4,1,0.3c0.3-0.1,0.6-0.5,0.5-0.8c0-0.2-0.2-0.6-0.5-0.7c-0.1-0.3-0.2-0.7-0.3-1
			c0.1,0.1,0.3,0.2,0.4,0.2c0,0,0.1,0,0.1,0c0.6,0.2,1.1,0,1.6-0.3c0.3-0.2,0.8-0.7,0.9-1.1C33.6,53.7,33.8,53.8,34,53.9z"/>
		<path class="st7" d="M39,52.7c0,0.6,0,1.2,0,1.8c-1.1-0.1-2.2-0.5-3.3-0.8c0-0.2-0.1-0.4-0.3-0.4c-0.4,0-0.7,0.1-1.1,0
			c-0.3-0.1-0.6-0.2-0.9-0.3c0.2-0.4,0.2-0.8,0-1.1c0,0-0.1-0.1-0.1-0.1c-0.3-0.4-1-0.7-1.4-0.5c-0.3,0-0.5,0.3-0.7,0.5
			c-0.2,0.3-0.3,0.6-0.2,0.9c0.1,0.8,1,1.4,1.7,1.1c0.1,0,0.2-0.1,0.3-0.2c-0.3,0.2-0.5,0.5-0.7,0.7c-0.3,0.2-0.7,0.3-1.1,0.4
			c-0.3-0.4-0.7-0.7-1-1.2c0,0,0,0,0,0c0-0.1-0.1-0.1-0.1-0.2c-0.3-0.5-0.4-1.1-0.5-1.7c1.8-1.4,3.8-2.1,5.9-0.5
			c0.1,0.1,0.3,0.1,0.4,0c1.1-0.1,2.2-0.4,3.3-0.6C39,51.2,39,51.9,39,52.7z"/>
		<path class="st8" d="M56.5,65.6c-0.5,0.3-1.1,0.5-1.7,0.6c0,0-0.1,0-0.1,0c-1.7,0.4-3.5,0.7-5.3,1.1c-3.8,0.7-7.5,1.7-11.3,2.3
			c-0.1,0-0.1,0.1-0.1,0.2c0,0,0,0,0,0c0,2.8,0.6,5.7,1.1,8.4c0.4,2.2,0.8,4.6,1.5,6.8c-0.5,0.1-1,0.2-1.4,0.3
			c-0.3,0.1-1.9,0.5-2.6,0.5c-0.3-0.9-0.6-1.9-0.9-2.8c-0.4-1.5-0.7-3-1-4.5c-0.3-1.6-0.5-3.2-0.8-4.8c0-1.3-0.4-2.5-0.2-3.7
			c0.1-0.4,0.3-0.9,0.6-1.2c0.9-1,2.3-1.5,3.5-2c1.5-0.7,3-1.3,4.5-1.9c2.9-1.1,5.8-1.9,8.7-2.8c0.1,0,0.3,0.1,0.4,0.1
			c1.1,0.2,2.2,0.4,3.3,0.5c0.1,0.5,0.3,1,0.5,1.4c0.1,0.2,0.3,0.5,0.4,0.7C56,65,56.2,65.3,56.5,65.6z"/>
		<path class="st2" d="M22.5,50c0.2,0,0.4,0,0.6,0c0.5,0,1,0,1.5,0.1c0.1-0.3,0.2-0.6,0.3-0.9C24.1,49.5,23.3,49.7,22.5,50z"/>
		<path class="st9" d="M31.5,52.5c0,0.4,0.6,0.8,1,0.5c0.4-0.2,0.5-0.7,0.2-1.1c-0.2-0.2-0.5-0.2-0.7-0.2
			C31.7,51.9,31.5,52.1,31.5,52.5z"/>
		<path class="st6" d="M24.1,55c0,0.2,0,0.3,0.1,0.5c-0.8-0.6-1-1.5-0.9-2.4c0-0.8,0.3-1.6,0.4-2.4c0.3,0,0.5,0,0.8,0.1
			c-0.2,0.8-0.4,1.7-0.4,2.6C24,53.9,24,54.4,24.1,55z"/>
		<path class="st3" d="M29.9,54.7c-0.1-0.2-0.2-0.5-0.3-0.7c-0.3-0.4-0.4-0.8-0.5-1.2c-0.1,0-0.1,0.1-0.2,0.2
			c-0.1,0.1-0.3,0.3-0.3,0.5c0.2,1,1.5,1.5,1.5,2.6c0,0.1-0.1,0.2-0.1,0.2c-0.1,0.3,0.2,0.7,0.5,0.5c0.2-0.1,0.3-0.2,0.2-0.4
			c0-0.1,0-0.2-0.1-0.2c0-0.1-0.1-0.1-0.2-0.2c0,0,0-0.1,0-0.1C30.2,55.5,30.1,55.1,29.9,54.7z"/>
		<path class="st10" d="M23.2,71.2c0,0.3-0.1,0.7-0.2,0.8c-0.3,0.4-1,0.8-1.5,0.8c-0.7,0-1.6-0.1-2.3-0.2c-0.5-0.1-1.2,0-1.2-0.8
			c0-0.1,0-0.1,0-0.2c0-0.2,0.2-0.4,0.4-0.6c0.5,0,0.9,0.1,1.4,0.1C20.9,71.2,22,71.2,23.2,71.2z"/>
		<path class="st11" d="M39.7,50.7c1.6-0.2,3.2-0.2,4.8-0.3c0.5,0,1.1-0.1,1.7-0.1c-0.1-0.3,0-0.6,0-0.9c-2.1,0.2-4.4,0.6-6.5,0.5
			c0,0,0,0,0,0C39.7,50.3,39.7,50.5,39.7,50.7z"/>
		<path class="st12" d="M54.1,36.2c-0.7-0.3-1.4-0.5-2.1-0.6c-0.3-0.1-0.7-0.1-1-0.1c-0.2,0-0.3,0.3-0.2,0.4
			c0.1,0.3,0.3,0.5,0.5,0.7c-1.6,0.3-3.1-0.1-4.4-1c0,0-0.1-0.1-0.1-0.1c0,0,0,0,0,0c0.3-0.3,0.5-0.6,0.7-1c1.1-0.2,2.2-0.6,3.2-1.1
			c0.2-0.1,0.3-0.2,0.5-0.3c1,0.8,2.4,0.9,3.7,0.6c-0.5,0.3-1.1,0.6-1.8,0.7c-0.2,0-0.3,0.4-0.1,0.5C53.5,35.2,53.8,35.6,54.1,36.2z
			"/>
		<path class="st13" d="M50.6,32.5c-1.2,0.7-4.9,2.5-5.6,0.4c-0.3-1-0.2-2.2-0.3-3.2c-0.1-0.9-0.2-1.9-0.3-2.8
			c0.1-0.2,0.1-0.5-0.2-0.6c-2.5-0.7-5-1.3-7.5-2c-2.2-0.6-4.4-1.3-6.6-1.7c1.2-0.2,2.5-0.3,3.7-0.7c0.2,0,0.2-0.2,0.2-0.4
			c0.3-0.5,0.7-1,1.1-1.5c2.3-2.6,5.8-3.9,9.3-3.8c2.3,0.1,4.8,0.9,6.7,2.3c1.1,0.9,2.1,2,2.7,3.3C55.4,25.8,54.1,30.3,50.6,32.5z"
			/>
		<path class="st11" d="M44.2,31.9c-0.5,0.3-1,0.6-1.2,1.3c-0.2,0.8,0.1,1.6,0.4,2.4c0.5-0.5,0.9-1.1,1.4-1.7
			c-0.2-0.2-0.3-0.5-0.4-1C44.3,32.6,44.2,32.3,44.2,31.9z"/>
		<path class="st12" d="M38.8,26.5c0.2,0.2,0.3,0.4,0.5,0.6c-2-0.3-3.8-1.1-5.3-2.5c-0.1-0.1-0.3,0.1-0.2,0.2c0,0,0,0,0,0
			c0,0,0,0,0,0.1c-0.1,0.8,0,1.7,0,2.5c-0.2,0-0.5-0.1-0.6-0.2c-0.7-0.4-1.1-1.3-0.6-2.2c0.1-0.2-0.1-0.4-0.3-0.3
			c-0.4,0.2-0.9,0.5-1.3,0.7c0.5-0.7,1.2-1.1,2-1.5c0.2,0.1,0.4,0.1,0.6,0.2c0.9,0.2,1.8,0.5,2.7,0.7c1.9,0.5,3.9,1.1,5.8,1.6
			c-1,0.1-2-0.1-3-0.4C38.9,26.1,38.7,26.3,38.8,26.5z"/>
		<path class="st4" d="M31.6,90.1c0,0.1,0.1,0.2,0.1,0.3c0.1-0.1,0.4-0.2,0.7-0.2c0.2-0.1,0.5-0.1,0.8-0.2c0.7-0.1,1.4-0.1,2.1-0.4
			c0.5-0.2,1-0.5,1.4-0.8c-0.1-0.1-0.2-0.3-0.2-0.5c0,0,0,0,0,0c-0.3,0.3-0.9,0.5-1.3,0.6C34,89.4,32.7,89.4,31.6,90.1z"/>
		<path class="st14" d="M56.5,51c0,0.2-0.1,0.3-0.2,0.3c1.2,3.4,2,7,2.5,10.6c1.3-0.1,2.6-0.2,3.8-0.7c0.5-0.4,0.7-1,0.6-1.8
			c-0.1-0.5-0.3-1.1-0.4-1.6c-0.3-1.2-0.7-2.3-1-3.5c-0.8-2.4-1.8-4.8-3-7c-1.1-2-2.5-3.9-4.1-5.6c0.2,0.4,0.3,0.8,0.4,1.2
			C55.8,45.5,56.3,48.2,56.5,51z"/>
		<path class="st15" d="M43,90.8c-0.9,0.2-1.8,0.3-2.7,0.5c-2.3,0.4-4.6,0.5-6.9,0.9c-0.1,0-0.2,0.1-0.4,0.1c-0.5-0.2-0.8-0.6-1-1.1
			c1.8-0.8,4-0.3,5.2-2.2c0,0,0-0.1,0-0.1c0-0.1,0-0.1,0-0.2c-0.1-0.1-0.2-0.2-0.2-0.3c0-0.2,0.1-0.3,0.3-0.3c0.3-0.1,0.6,0,0.9,0
			c0,0.2,0,0.6,0.3,0.6c0.2,0.2,0.4,0.3,0.6,0.4c0.5,0.2,1,0.1,1.4-0.2c0.3-0.2,0.7-0.6,0.8-1c0.2,0,0.4,0,0.5,0.2
			c0.1,0.2-0.1,0.5,0,0.7c0,0.1,0.1,0.1,0.2,0.1c0.2,0.2,0.4,0.5,0.5,0.8c0.2,0.3,0.3,0.7,0.4,1.1C42.9,90.7,42.9,90.8,43,90.8z"/>
		<path class="st13" d="M55.7,49.9c-0.9,0-1.9,0-2.8-0.1c-1.3-0.1-2.6-0.3-3.9-0.5c-0.1-2.4-0.5-7.5,0.8-9.3
			c0.5-0.7,1.2-0.9,2.3-0.4c0.2,0.1,0.4,0.2,0.6,0.4c0,0,0.1,0,0.1,0.1c1.3,1.1,1.6,3.3,2,4.8C55.2,46.5,55.5,48.1,55.7,49.9z"/>
		<path class="st16" d="M47.2,36.5c-0.4,0.4-0.8,0.8-1.3,1.3c-0.4,0.4-0.7,0.8-1,1.2c-0.1-0.2-0.3-0.4-0.4-0.5c0,0-0.1-0.1-0.1-0.1
			c-0.1-0.1-0.2-0.2-0.3-0.2c0.5-0.3,0.9-0.6,1.3-0.9c0.4-0.3,0.8-0.7,1.2-1C46.8,36.2,47,36.4,47.2,36.5z"/>
		<path class="st17" d="M49.2,37.2c-0.5,0.6-0.9,1.1-1.4,1.7c-1,1.2-2,2.3-3.1,3.4c-0.2-0.6-0.3-1.2-0.4-1.9
			c0.8-0.6,1.5-1.4,2.2-2.2c0.4-0.5,0.8-1,1.2-1.4C48.2,37,48.7,37.1,49.2,37.2z"/>
		<path class="st13" d="M51.1,38.7c-0.8,0-1.3,0.4-1.8,0.9c-0.6,0.7-0.9,1.7-1,2.6c-0.3,2.6-0.4,5.5,0.2,8.1c0,0,0,0,0,0
			c0,0,0,0,0,0c-0.4,0-0.9,0-1.3,0c-0.4-2.7-0.7-5.5-1.4-8.2c0.9-0.9,1.8-1.9,2.6-3c0.4-0.5,0.8-1,1.1-1.6
			C50,37.9,50.6,38.3,51.1,38.7z"/>
		<path class="st16" d="M54,53.9C53.4,54,52.7,54,52,54c-1.4,0-2.8-0.1-4.2-0.1c-2.7-0.1-5.4-0.3-8.1-0.1c0-0.3,0-0.7,0-1
			c0-0.5,0-1,0-1.5c1.7,0.1,3.3,0,5,0c1.5,0,3.2,0.1,4.7-0.2c0.8,0.4,1.9,0.7,2.9,0.8c1,0.1,2.1,0.1,3-0.2
			C55.8,52.6,55,53.6,54,53.9z"/>
		<path class="st16" d="M43.9,27c-0.1,0-0.2-0.1-0.4-0.1c-1.3,0.3-2.6,0.3-3.8-0.1c0.2,0.2,0.4,0.3,0.6,0.4c0.3,0.1,0.2,0.6-0.1,0.6
			c-2.2-0.1-4.3-1-5.9-2.6c0.1,0.6,0.2,1.1,0.3,1.7c0.2,1.5,0.5,3,0.8,4.5c0.6,0.1,1.3,0.3,1.9,0.4c0.8,0.1,1.6,0.1,2.4,0
			c0.7-0.1,1.3-0.2,2-0.4c0.2-0.1,0.5-0.1,0.7-0.2c0.6-0.2,1.2-0.6,1.8-0.8C43.9,29.3,43.9,28.1,43.9,27z M35.3,27.8
			c0-0.1,0.1-0.1,0.1-0.1c0.5-0.5,1.3-0.2,1.8,0.1c0.3,0.2-0.1,0.7-0.4,0.5C36.5,28.1,36.3,28,36,28c-0.2,0-0.4,0-0.6,0
			C35.3,28,35.2,27.9,35.3,27.8z M36.4,31.3c-0.2,0-0.3-0.2-0.4-0.4c-0.1-0.4-0.1-0.8-0.1-1.2c0.1-0.3,0.5-0.3,0.6,0
			c0.1,0.2,0.1,0.4,0.1,0.6c0,0.2,0,0.4,0.1,0.6C36.8,31.2,36.6,31.3,36.4,31.3z M37.9,31.4c-0.1,0.1-0.2,0-0.2-0.2
			c0.2-0.4,0.8-0.7,1.2-0.8c0.1,0,0.1,0.1,0.1,0.2c-0.2,0.2-0.4,0.2-0.5,0.4C38.3,31.1,38.1,31.3,37.9,31.4z M39.7,30.8
			c-0.1,0.1-0.2,0.2-0.3,0.3c-0.1,0.1-0.3,0.2-0.4,0.2c-0.1,0.1-0.2-0.1-0.1-0.2c0.1-0.1,0.2-0.2,0.4-0.3c0.1-0.1,0.2-0.2,0.4-0.2
			C39.7,30.6,39.8,30.7,39.7,30.8z"/>
		<path class="st8" d="M58.7,62.6c-0.1,1.2-0.8,2-1.7,2.6c0,0,0,0,0,0c-0.3-0.4-0.6-0.8-0.9-1.3c-0.1-0.1-0.1-0.2-0.2-0.3
			c-0.2-0.3-0.3-0.7-0.5-1c0.4,0,0.7,0,1.1,0c0.5,0,1,0,1.5,0C58.2,62.7,58.4,62.7,58.7,62.6z"/>
		<path class="st18" d="M43,36c-1.2,1.2-2.6,2.1-4.4,2.7c0,0-0.1,0-0.1,0c0,0,0,0-0.1,0c-1.5-0.2-2.6-2.1-3.4-3.1
			c-0.6-0.8-1.3-1.4-0.9-2.5c0.2-0.5,0.6-0.8,1-1.2c0,0,0.1,0,0.1-0.1c1.2,0.8,3.2,0.8,4.6,0.7c0.5-0.1,1.2-0.2,1.8-0.3
			c0.9-0.2,1.8-0.6,2.5-1.1c0,0.1,0,0.3,0.1,0.4c-0.7,0.3-1.3,0.7-1.5,1.4C42.3,33.9,42.6,35.1,43,36z"/>
		<path class="st19" d="M46.6,34.6c-0.6,0-1.1-0.1-1.5-0.3c-0.8,1.7-2.2,3.2-3.8,4.2C43.4,37.7,45.2,36.5,46.6,34.6z"/>
		<path class="st4" d="M12.6,68.6c-0.2,0.2-0.4,0.3-0.6,0.5c-0.7,0.6-1.3,1.2-2,1.7c-0.1,1.1-0.7,2.3,0,3.3c0.4,0.6,1,0.7,1.6,0.8
			c-0.3-0.5-0.5-1-0.5-1.6C10.8,71.6,11.6,70,12.6,68.6z"/>
		<path class="st20" d="M58.9,62.6c-0.2,3.5-4.5,4-7.2,4.6c-4.5,0.9-9.1,1.6-13.6,2.6c0.5,2.8,0.7,5.7,1.2,8.5
			c0.4,2.2,1.1,4.4,1.7,6.6c0.3-0.1,0.6-0.1,1-0.2c-0.3-1.8-0.7-3.7-1.1-5.5c-0.5-2.2-1.1-4.3-1.4-6.5c0,0,0,0,0,0c0,0,0,0,0,0
			c0-0.1,0-0.2,0-0.2c0-0.1,0-0.1,0.1-0.2c0-0.1,0-0.2,0-0.3c0-0.2,0-0.4-0.1-0.5c-0.2-0.2-0.1-0.7,0.2-0.7
			c4.3-0.6,8.7-1.2,13.1-1.4c2.1-0.1,4.4,0,6.4-1c2.1-1,2.7-2.7,2.6-4.9c0-0.1,0-0.1,0-0.1c0,0,0,0,0,0c-0.1-0.3-0.1-0.7-0.1-1
			C60.8,62.5,59.8,62.6,58.9,62.6z"/>
		<path class="st20" d="M41.4,86.4c0.3,0,0.6-0.1,0.9-0.1c-0.1-0.4-0.2-0.9-0.2-1.3c-0.3,0.1-0.6,0.2-0.9,0.2
			C41.2,85.6,41.3,86,41.4,86.4z"/>
		<path class="st20" d="M42.6,81.7c-0.7-1.6-0.9-3.6-1.3-5.3c-0.3-1.6-0.8-3.4-0.9-5.1c-0.1,0-0.3,0-0.4,0.1
			c0.1,0.1,0.1,0.3,0.1,0.5c0,0.2,0,0.5-0.2,0.7c0.8,2.1,1.2,4.4,1.7,6.6c0.2,1,0.4,2,0.6,3.1C42.4,82.1,42.5,81.9,42.6,81.7z"/>
		<path class="st2" d="M21.4,87.7c-0.6-0.2-1.3-0.3-1.9-0.5c-1.1-0.3-1.9-0.6-2.7-1.3c0-0.1-0.1-0.2-0.3-0.3c-2-0.5-4-1.1-6-1.7
			c-0.8-0.3-1.6-0.5-2.4-0.8c-0.1,0-0.1,0-0.2-0.1c-1.2-0.4-2.9-0.7-1.9-2.5c0.8-1.4,2.4-2.4,3.9-2.8c0.8-0.2,1.5-0.3,2.3-0.4
			c0.7,0,1.3,0,2,0.1c1.9,2.9,3.9,5.7,5.9,8.5C20.7,86.6,21,87.2,21.4,87.7z"/>
		<path class="st3" d="M88.5,68.6c-2.2,0-4.3,0-6.5,0c-2.2,0-4.5,0-6.7,0c-2,0-4,0.1-6-0.1c-0.1,0.1-0.2,0.3-0.1,0.5
			c0,0.2,0.1,0.3,0.3,0.4c4.3-0.1,8.5,0,12.8,0c2.1,0,4.2,0,6.3,0c1.9,0,4-0.2,5.9,0.1c0-0.1,0.1-0.3,0.1-0.4c0-0.1,0-0.3,0-0.4
			C92.6,68.9,90.4,68.6,88.5,68.6z"/>
		<path class="st8" d="M40.7,85.3c-1.3,0.3-2.7,0.5-4,0.8c0.1,0.3,0.1,0.6,0.2,0.9c1.5-0.1,2.9-0.2,4.3-0.5
			C40.9,86.1,40.8,85.7,40.7,85.3z"/>
		<path class="st13" d="M58.6,61.9c-0.2,0-0.4,0-0.7,0c-0.4,0-0.9,0-1.3,0c-1.4,0-2.8-0.2-4.2-0.4c-0.9-0.1-1.7-0.3-2.6-0.6
			c-0.3-0.1-0.9-0.2-1.2-0.4c-0.6-0.5-0.5-1.3-0.4-1.9c0.1-0.7,0.2-1.5,0.1-2.3c0-0.6-0.1-1.2-0.3-1.8c1.2,0,2.3,0,3.5,0.1
			c1.3,0,2.8,0.2,3.9-0.8c0.1-0.1,0.2-0.2,0.3-0.3c0.4-0.5,0.5-1,0.4-1.6c0-0.2-0.1-0.4-0.2-0.6c0.1,0,0.2-0.1,0.3-0.1
			c0.1,0.2,0.1,0.5,0.2,0.7c0.2,0.8,0.4,1.6,0.6,2.4C57.6,56.9,58.2,59.3,58.6,61.9z"/>
		<path class="st16" d="M40.7,87.4c-0.1,0.3-0.2,0.6-0.5,0.8c-0.2,0.2-0.5,0.2-0.8,0.2c-0.2,0-0.4,0-0.6-0.1c0-0.2,0-0.4,0-0.6
			c0,0,0-0.1,0-0.1c0.2,0,0.5,0,0.7,0C39.9,87.5,40.3,87.5,40.7,87.4z"/>
		<path class="st9" d="M66.1,68.8c-0.6,0-1.3,0-1.8,0c-0.3,0-0.6,0.1-0.8,0.2c-1,0.4-1.9,1.2-2.1,2.3c-0.9,0.1-1.7,0.2-2.5,0.3
			c-2.6-0.3-5.2-0.4-7.8-0.5c-1.8-0.1-3.6-0.3-5.4-0.4c0.7-0.1,1.4-0.2,2.1-0.2c2.7-0.3,5.3-0.3,8-0.6c1.7-0.2,3.5-0.5,4.9-1.6
			c0.2-0.1,0.4-0.3,0.5-0.5c0.1-0.1,0.2-0.2,0.2-0.3c0.8,0.2,1.6,0.2,2.4,0.4C64.7,68,65.4,68.3,66.1,68.8z"/>
		<path class="st14" d="M95.8,48.7c0.1,0.4,0.1,0.7,0.1,1c0,0.2,0,0.5,0.1,0.8c0.2-0.2,0.3-0.4,0.3-0.8C96.4,49.3,96.1,49,95.8,48.7
			z"/>
		<path class="st3" d="M69.4,53.1c0,1.7,0,3.4,0,5.1c0,1.8,0,3.6,0,5.3c0,1.4,0.2,3-0.1,4.4c0.2,0,0.4,0,0.6-0.1c0-0.3,0-0.6,0-0.9
			c-0.2-1.4,0-2.8,0-4.1c0-1.7,0-3.4,0-5.1c0-1.8,0-3.5,0-5.3c0-1.4-0.1-2.9,0.1-4.3c0,0,0,0,0,0c-0.1-0.1-0.2-0.2-0.4-0.2
			c-0.1,0-0.2,0-0.3,0C69.5,49.7,69.4,51.5,69.4,53.1z"/>
		<path class="st13" d="M94.8,52.4c-0.4-0.6-1.2-1.1-1.9-1.4c-0.7-0.3-1.4-0.5-2.2-0.4c-3-0.2-6.2,0-9.2,0c-3.2,0-6.5,0.2-9.8,0.1
			c0-0.3,0-0.7,0-1c0-0.6,0-1.2-0.2-1.8c0,0,0,0,0-0.1c0.1-0.2,0.1-0.3,0.2-0.4c0.2-0.2,0.4-0.3,0.7-0.4c1.6,0.2,3.3,0.1,4.9,0.1H83
			c1.9,0,3.7,0,5.6,0c1.6,0,3.3,0.1,5-0.1c0.8,0.1,1.2,0.6,1.4,1.2c0.2,0.5,0.2,1.1,0.3,1.6C95.3,50.5,95.5,51.9,94.8,52.4z"/>
		<path class="st2" d="M56.7,72.1c-3.6,1.1-6.8,3.4-8.6,7c-1.6,3.2-2,7.4-0.8,10.8c-1.2,0.3-2.5,0.6-3.7,0.8c0,0,0-0.1,0-0.1
			c0-0.8-0.5-1.7-1.2-2.1c0,0,0-0.1,0-0.1c0-0.2,0-0.5-0.2-0.7c-0.1-0.1-0.3-0.3-0.5-0.3c-0.1,0-0.3-0.1-0.4-0.1c0,0,0,0,0,0
			c0.2-0.1,0.4-0.1,0.6-0.2c0.2-0.1,0.4-0.1,0.7-0.2c0.2-0.1,0.2-0.2,0.2-0.3c0.1-0.1,0.1-0.2,0.1-0.3c0-0.1,0-0.1,0-0.2
			c-0.2-0.9-0.3-1.8-0.5-2.6c1.4-1.7,2.3-4.6,2.2-6.7c-0.1-1.2-0.6-2.3-1.2-3.2c-0.5-0.8-1-1.5-1.4-2.3c0.3,0,0.7-0.1,1-0.1
			c2.4,0.5,5,0.5,7.4,0.7C52.6,71.9,54.6,72,56.7,72.1z"/>
		<path class="st4" d="M32.2,92.7c-0.5-0.3-0.7-1-1-1.6c-0.7-1.7-1.3-3.3-2-5c-0.6-1.7-1.2-3.4-1.8-5.1c-0.5-1.5-1.2-3.2-1.4-4.8
			c0-0.1,0-0.1,0.1-0.2c0,0,0,0,0,0c1.4-4.1,3-8.2,4.5-12.3c0.4-1,0.8-2,1.1-3.1c0.1-0.3,0.2-0.6,0.3-1c0.1-0.5-0.1-0.9-0.3-1.1
			c-2.3,5.8-4.9,11.5-6.9,17.4c0,0.1-0.1,0.1-0.1,0.1c2.1,5.6,4.3,11.2,6.5,16.8c0,0,0,0.1,0,0.1C31.5,92.8,31.9,92.7,32.2,92.7z"/>
		<path class="st3" d="M68.6,68.7c-0.4,0.3-0.8,0.5-1.3,0.6c-1.1,0.2-2.2-0.2-3.3,0.1c-1,0.3-1.6,0.9-2.1,1.7c0.6,0,1.2,0,1.9,0
			c0.8-1.8,3.3-1.3,5.2-1.5C68.7,69.5,68.5,69.1,68.6,68.7z"/>
		<path class="st15" d="M55.8,50.7c-1,0.1-2,0.3-3.1,0.2c-0.1,0-0.1,0-0.2,0c-1.2-0.1-2.4-0.5-3.5-0.7c0,0,0,0,0-0.1
			c0-0.2,0-0.4,0-0.7c1.2,0.4,2.6,0.6,3.9,0.7c0.9,0.1,1.9,0.1,2.8,0C55.8,50.3,55.8,50.5,55.8,50.7z"/>
		<path class="st19" d="M67.8,91.3c-0.7,0.8-2.2,0.6-2.6-0.4c-0.1-0.3-0.1-0.5-0.1-0.8c0.1-0.7,0.8-1.3,1.6-1.3c0.2,0,0.3,0,0.4,0.1
			c0.2,0.1,0.4,0.3,0.5,0.5C68.2,89.9,68.4,90.6,67.8,91.3z"/>
		<path class="st2" d="M59.3,72.1c-2.8,0.8-5.4,2.4-7.2,4.7c-0.6,0.8-1.1,1.6-1.5,2.4c-1.8,3.6-2,7.9-0.5,11.7
			c-7,1.5-14,2.7-21.1,3.7c-0.5,0.1-1,0.1-1.5,0.2c0,0,0,0,0-0.1c-2.1-3.2-4.5-6.2-6.7-9.3c-1.1-1.5-2.1-3.1-3.2-4.6
			c-1.1-1.6-2.2-3.2-3.3-4.8c0-0.1-0.1-0.1-0.1-0.1c0,0-0.1-0.1-0.1-0.1c-1.6-0.4-2.2-1.7-2.2-3c0.8,1.1,2.6,1.4,3.8,1.6
			c3,0.6,5.9,1.3,8.9,1.8c2,5.5,4.1,11,6.4,16.5c0,0.1,0.1,0.1,0.1,0.1c0,0.1,0,0.2,0.1,0.2c0.5,0,1.1-0.1,1.6-0.1
			c0.3,0,0.5,0,0.8-0.1c2.2,0,4.6-0.5,6.7-0.9c2.5-0.4,5-0.9,7.4-1.5c0.1,0,0.3-0.1,0.3-0.3c0-0.1,0-0.1,0-0.2
			c-0.2-1.5-0.4-3-0.4-4.4c0-2.5,0.4-4.9,1.8-7.2c2-3.3,5.7-5.4,9.4-6.2C58.9,72.2,59.1,72.2,59.3,72.1z"/>
		<path class="st21" d="M69.3,88.9c-0.3-0.7-0.8-1.3-1.6-1.5c-8.3,2.4-16.8,4.4-25.3,5.9c2-0.1,4,0,6,0c1.8,0,3.6,0,5.4,0h3.3
			c3,0,6,0,9-0.3c1.3-0.1,3-0.4,3.4-1.9C69.7,90.5,69.6,89.6,69.3,88.9z M68.3,91.8c-1,1.2-3.1,0.9-3.7-0.6
			c-0.1-0.3-0.2-0.6-0.1-0.9c0-1.2,1.1-2.2,2.4-2.1c0.6,0.1,1.2,0.5,1.5,1c0.2,0.3,0.3,0.7,0.4,1C68.8,90.8,68.7,91.3,68.3,91.8z"/>
		<path class="st9" d="M20.4,99.7c0,0-0.1,0-0.1,0.1c-3.1,1.8-7.2,1.7-10.5,0.4c-3.3-1.4-5.5-4-5.9-7.6c-0.3-2.7,0.1-5.1,1.4-7.1
			c0.4-0.6,0.8-1.2,1.4-1.7c0,0,0,0,0,0c1.5,0.7,3.1,1,4.6,1.5c-0.9,0.4-1.6,1.2-2.1,2C8.7,88,8.3,89,8.3,89.9C8,92.5,9.6,95,12,96
			c2,0.8,4.3,0.4,5.9-0.9c0.4-0.3,0.7-0.7,1-1.1c1.1-1.4,1.7-3.8,0.8-5.5c0.5,0.2,0.9,0.3,1.4,0.5c0.4,0.1,0.8,0.2,1.3,0.2
			c0.6,0.9,1.2,1.7,1.8,2.6C24.5,95.1,23.3,98,20.4,99.7z"/>
		<path class="st21" d="M14.7,88.8c-0.3,0.6-0.5,1.2-0.8,1.8c-0.1,0.3-0.3,0.7-0.4,1c-0.4-0.3-0.9-0.5-1.4-0.7
			c0.1-0.5,0.3-1,0.5-1.4c0-0.1,0.1-0.1,0.1-0.2C13.3,88.4,14,88.6,14.7,88.8z"/>
		<path class="st21" d="M18.5,87.9c-0.6,1-1.1,2-1.6,3c-0.3,0.5-0.6,1-1.1,1.2c0,0,0,0,0,0c-0.6,0.3-1.2,0-1.8-0.1
			c0.2-0.4,0.5-0.7,0.7-1.1c0.8-1.4,1.3-2.9,1.9-4.4c0.3,0.5,0.9,0.9,1.5,1.1C18.2,87.7,18.3,87.8,18.5,87.9
			C18.5,87.8,18.5,87.9,18.5,87.9C18.5,87.9,18.5,87.9,18.5,87.9z"/>
		<path class="st19" d="M18,94.1c-0.2,0.2-0.3,0.3-0.5,0.5c-1.6,1.3-3.9,1.5-5.8,0.6c-2-1-3.1-3.3-2.8-5.5c0.1-0.8,0.4-1.5,0.8-2.1
			c0.6-0.9,1.5-1.5,2.4-2.1c1.2,0.4,2.4,0.8,3.6,0.9c-0.3,0.6-0.5,1.2-0.8,1.8c-0.8-0.2-1.7-0.6-2.4,0.1c-0.2,0.2-0.4,0.5-0.6,0.8
			c-0.3,0.6-0.5,1.3-0.6,1.9c0,0.1,0,0.3,0.2,0.4c0.5,0.3,1.1,0.6,1.7,0.7c0,0.1,0.1,0.2,0.2,0.3c1,0.9,1.8,0.9,2.6,0.5
			c1.3-0.8,2.3-2.8,2.9-4.2C20,90.4,19.5,92.6,18,94.1z"/>
		<path class="st19" d="M71.1,93.2c-0.1,0.1-0.2,0.2-0.2,0.3c-0.9,1.1-2.2,1.7-3.5,1.7c-1.1,0-1.9-0.4-2.8-0.8
			c-0.2-0.1-0.3-0.2-0.5-0.2c0.6,0,1.3,0,1.9-0.1c0.7-0.1,1.4-0.2,2.1-0.4c1-0.3,1.8-0.9,2.1-1.9c0.5-1.5,0-3.4-1.2-4.3
			c0.2,0,0.5-0.1,0.7-0.2c0.9,0.5,1.6,1.2,2,2.2C72.2,90.7,71.9,92.1,71.1,93.2z"/>
		<path class="st2" d="M74.8,74.8c-0.1,0-0.1,0-0.2-0.1c-0.8-0.4-1.7-0.8-2.5-1.1c-0.6-0.2-1.2-0.4-1.8-0.6c-1.5-0.4-3.1-0.8-4.6-1
			c0,0-0.1,0-0.1,0c-4.9-0.8-10.1,1.1-13.2,5c-1.6,2-2.6,4.4-2.9,7c-0.3,2.3,0,4.7,0.8,6.9c9.9-2.1,19.6-4.8,29.3-8.1v0
			C80.5,79.1,77.8,76.5,74.8,74.8z M52.4,84.7c-0.4,0.1-0.6-0.5-0.2-0.7c4.8-1.4,9.7-2.4,14.5-3.4c0.1,0,0.3-0.1,0.4-0.1
			c0.5-0.1,0.7,0.6,0.2,0.7c-0.6,0.1-1.2,0.2-1.8,0.3C61.2,82.5,56.8,83.6,52.4,84.7z M51.9,81.4c4.9-1.4,9.9-2.5,15-3.4
			c0.5-0.1,0.7,0.6,0.2,0.7c-5,0.9-10,2.1-15,3.4C51.6,82.2,51.5,81.6,51.9,81.4z M68,83.8c-5,0.9-10,2.1-15,3.4
			c-0.4,0.1-0.6-0.5-0.2-0.7c0.5-0.1,1-0.3,1.5-0.4c2.2-0.6,4.4-1.1,6.7-1.6c2.3-0.5,4.6-1,6.9-1.4C68.3,83,68.5,83.7,68,83.8z"/>
		<path class="st4" d="M74.4,73.1c-0.3-0.4-1.3-0.3-1.8-0.3c-0.3,0-0.6,0-0.9-0.1c1,0.3,1.9,0.7,2.8,1.1
			C74.5,73.5,74.5,73.2,74.4,73.1z"/>
		<path class="st9" d="M67.4,71.6c-0.4-0.1-0.9-0.1-1.3-0.2c-0.1,0-0.2,0-0.4,0c-0.4-0.1-0.9-0.1-1.3-0.1c0.5-0.4,1-0.5,1.6-0.6
			c0.4-0.1,0.9-0.1,1.4-0.1C67.4,70.9,67.4,71.3,67.4,71.6z"/>
		<path class="st13" d="M75.1,74.1c0.6,0.3,1.2,0.7,1.7,1.1c0.1,0.1,0.3,0.2,0.4,0.3c0-0.1,0-0.2,0-0.3c0-0.4-0.1-0.8-0.3-1.1
			c-0.4-0.7-1.1-0.9-1.8-1C75.1,73.4,75.1,73.8,75.1,74.1z"/>
		<path class="st9" d="M77.3,93c0,0.2,0,0.3-0.1,0.5c-0.4,2.8-2,5.1-4.6,6.4c-4.1,1.9-12,0.9-14.1-3.7c-0.2-0.4-0.3-0.9-0.4-1.3
			c1,0.1,2.1-0.2,3.1-0.3c0.7-0.1,1.4-0.2,2.1-0.3c0.1,0.2,0.2,0.3,0.3,0.4c0.9,1,2.6,1.3,3.9,1.3c1.7-0.1,3.2-0.9,4.2-2.3
			c0.1-0.1,0.2-0.3,0.3-0.5c1-2,0.6-5-1.3-6.2c0.4-0.2,0.8-0.3,1.3-0.5c1-0.3,2-0.5,3-0.9C77.2,87.3,77.7,90.2,77.3,93z"/>
		<path d="M20.2,73.5c0.9,0.1,2.2,0.5,3-0.3c0.7-0.8,0.7-2.3,0.9-3.3c0.2-0.9,0.4-1.8,0.2-2.7c0,0,0,0,0,0c0-0.1,0-0.1-0.1-0.2
			c0-0.1-0.1-0.2-0.1-0.2c0-0.1-0.1-0.1-0.1-0.1c-0.9-0.9-3.2,1-3.9,1.5c-0.9,0.8-4.1,3.3-2.6,4.7C18.2,73.5,19.4,73.4,20.2,73.5z
			 M18.6,70.7c0.4-0.5,0.8-1,1.3-1.4c0.5-0.5,2.9-2.7,3.9-2.2c0.1,1.3-0.3,2.6-0.6,3.8c0,0,0,0,0,0.1c-1.6-0.1-3.2-0.1-4.7-0.1
			C18.5,70.8,18.6,70.7,18.6,70.7z M17.9,71.6c0-0.2,0.2-0.4,0.4-0.6c1.6,0.1,3.3,0.2,4.9,0.2c0,0.3-0.1,0.7-0.2,0.8
			c-0.3,0.4-1,0.8-1.5,0.8c-0.7,0-1.6-0.1-2.3-0.2C18.6,72.6,17.9,72.6,17.9,71.6z"/>
		<path d="M68.3,91.8c0.4-0.5,0.5-1,0.5-1.6c-0.1-1-0.9-1.9-1.9-2c-1.7-0.2-2.9,1.4-2.3,3C65.2,92.7,67.3,93,68.3,91.8z M66.7,88.8
			c0.2,0,0.3,0,0.4,0.1c0.8,0.6,1.4,1.6,0.6,2.4c-0.7,0.8-2.2,0.6-2.6-0.4C64.9,89.8,65.6,88.8,66.7,88.8z"/>
		<path d="M52.1,82.1c5-1.3,9.9-2.5,15-3.4c0.5-0.1,0.3-0.8-0.2-0.7c-5,0.9-10.1,2-15,3.4C51.5,81.6,51.6,82.2,52.1,82.1z"/>
		<path d="M67.2,80.6c-5,0.9-10.1,2-15,3.4c-0.4,0.1-0.2,0.8,0.2,0.7c5-1.3,9.9-2.5,15-3.4C67.9,81.3,67.7,80.5,67.2,80.6z"/>
		<path d="M53.1,87.2c5-1.3,9.9-2.5,15-3.4c0.5-0.1,0.3-0.8-0.2-0.7c-5,0.9-10.1,2-15,3.4C52.4,86.6,52.6,87.3,53.1,87.2z"/>
		<path d="M36.7,28.2c0.3,0.2,0.8-0.2,0.4-0.5c-0.5-0.4-1.5-0.6-1.9,0c-0.1,0.1,0,0.2,0.1,0.2C35.9,28.1,36.3,27.9,36.7,28.2z"/>
		<path d="M36.6,29.8c-0.1-0.3-0.6-0.3-0.6,0c-0.1,0.4,0,0.8,0.1,1.2c0,0.2,0.2,0.4,0.4,0.4c0.2,0,0.4-0.2,0.4-0.4
			c0-0.2,0-0.4-0.1-0.6C36.7,30.2,36.7,29.9,36.6,29.8z"/>
		<path d="M37.9,31.4c0.2-0.1,0.4-0.3,0.6-0.4c0.2-0.1,0.4-0.2,0.6-0.4c0.1-0.1,0-0.2-0.1-0.2c-0.4,0-1,0.4-1.2,0.8
			C37.6,31.4,37.8,31.5,37.9,31.4z"/>
		<path d="M39,31.3c0.1-0.1,0.3-0.2,0.4-0.2c0.1-0.1,0.2-0.1,0.3-0.3c0.1-0.1,0-0.2-0.1-0.2c-0.1,0-0.2,0.1-0.4,0.2
			c-0.1,0.1-0.2,0.2-0.4,0.3C38.7,31.2,38.9,31.4,39,31.3z"/>
		<path d="M95.7,48.2c-0.3-0.9-0.8-1.8-1.6-1.8c-3.5-0.5-7.2-0.2-10.7-0.2c-1.9,0-3.7,0-5.6,0c-1.8,0-3.8-0.2-5.6,0.1
			c0,0-0.1,0-0.1,0c-0.3,0.1-0.6,0.3-0.8,0.6c-0.2,0.2-0.4,0.7-0.3,1c-0.3,1.4-0.1,3-0.1,4.5c0,1.6,0,3.3,0,4.9c0,1.6,0,3.1,0,4.7
			c0,1.6-0.1,3.3,0.1,5c-0.1,0.2,0,0.6,0.2,0.8c0,0.1,0.1,0.1,0.1,0.2c-0.3,0-0.5,0-0.8,0c0-0.2,0-0.3,0-0.5
			c0.2-1.4,0.1-2.9,0.1-4.3c0-1.8,0-3.5,0-5.3c0-1.7,0-3.4,0-5.1c0-1.6,0.2-3.3-0.1-4.9c0-0.1-0.1-0.2-0.2-0.2
			c-0.4-0.5-1.3-0.5-1.6,0.1c0,0.1,0,0.1,0,0.2c0,0,0,0,0,0c-0.3,1.6-0.1,3.3-0.1,4.9c0,1.8,0,3.6,0,5.3c0,1.7,0,3.4,0,5.1
			c0,1.2-0.1,2.6,0,3.8c-0.1,1-0.8,1.4-1.7,1.5c0,0,0,0,0,0c-0.8-1.5-3.4-1.7-5.1-1.7c0.7-1.1,1-2.4,0.4-3.6c0.1,0,0.2-0.1,0.2-0.3
			c0-0.3-0.1-0.7-0.1-1c0.7-0.1,1.3-0.6,1.6-1.3c0.4-1-0.1-2.3-0.3-3.4c-0.8-2.9-1.8-5.8-3.1-8.5c-2.2-4.5-5.8-9.6-10.5-11.8
			c0.7,0,1.5-0.1,2.2-0.3c0.2-0.1,0.3-0.4,0.1-0.5c-0.2-0.1-0.4-0.2-0.5-0.3c1,0.1,2,0.4,2.9,0.9c0.2,0.1,0.5-0.1,0.4-0.4
			c-0.2-0.7-0.6-1.4-1.1-1.9c0.9-0.3,1.7-0.8,2.2-1.6c0,0,0-0.1,0-0.1c0-0.1-0.1-0.2-0.2-0.2c-0.8,0.3-1.6,0.3-2.5,0.2
			c-0.6-0.1-1.1-0.3-1.6-0.5c1.2-0.9,2.2-2.2,2.8-3.6c1.3-3.2,0.7-7-1.6-9.6c-2.3-2.6-5.9-3.8-9.3-3.8c-4.2,0.1-8.1,2.1-10.3,5.7
			c0,0,0,0.1,0,0.1c-1.4,0.2-2.8,0.6-4.2,1.1c-0.2,0.1-0.1,0.4,0.1,0.3c0,0,0,0,0,0c1,0.4,2,0.7,3.1,1c-1,0.4-1.8,1.3-2.2,2.2
			c-0.1,0.2,0.1,0.5,0.4,0.3c0.5-0.3,1-0.6,1.6-0.9c-0.3,1.3,0.6,2.6,2,2.6c0.2,1.2,0.4,2.4,0.8,3.5c-1.5,0.9-1.9,2.5-0.8,3.9
			c0.8,1,1.7,2,2.5,3c0.6,0.6,1.2,1.1,2,0.9c0.1,0.1,0.2,0.1,0.3,0.1c0,0,0.1,0,0.1,0c1.5,0,3-0.4,4.3-1.1c0.3,0.2,0.5,0.4,0.7,0.6
			c0.2,0.2,0.3,0.5,0.5,0.7c-0.2,0.2-0.3,0.5-0.5,0.7c0,0,0,0,0,0c0,0,0,0,0,0c0,0,0,0.1,0,0.1c-0.1,0.9,0,1.7,0.4,2.6
			c0.1,0.2,0.4,0.3,0.6,0.1c0.2-0.2,0.4-0.4,0.6-0.6c0.1,2.1,0.5,4.3,0.8,6.4c-2.3,0.2-4.8,0.2-7,0.8c0-0.2,0-0.4,0-0.7
			c0-0.2-0.2-0.3-0.3-0.2c-1,0.2-2,0.3-2.9,0.7l0,0c0,0-0.1-0.1-0.1-0.1c-0.7-0.9-2.1-1.2-3.2-1.1c-0.1,0-0.1-0.1-0.2-0.1
			c0.3-1.2,0.6-2.5,0.9-3.8c0.1,0,0.2,0,0.3,0c0.1,0.3,0.4,0.5,0.6,0.6c0.2,0.1,0.4,0.2,0.6,0.1c0.1,0,0.1,0,0.2,0
			c0.7-0.3,0.9-1,1-1.7c0.2-0.9,0.3-1.9,0.2-2.8c0,0,0-0.1,0.1-0.1c0.1-0.5-0.7-0.8-1.2-0.6c-0.1-0.2-0.2-0.4-0.3-0.6c0,0,0,0,0,0
			c0,0,0-0.1-0.1-0.1c-1.6-0.8-2.4,1.5-2.6,2.7c0,0.1,0,0.2,0,0.3c-0.1,0-0.2,0-0.3,0.1c-0.2,0.1-0.4,0.1-0.6,0.2
			c-0.1,0-0.3,0.1-0.4,0.3c-0.1,0-0.2,0-0.2,0.1c-0.3,1.2-0.2,2.5-0.3,3.8c0,0.4,0,0.9,0,1.3c-3.1,0-6.1,0.8-8.8,2.4
			c-0.1,0-0.1,0.2,0,0.2c0,0,0,0.1,0.1,0.1c0.4,0.2,0.8,0.2,1.2,0.2c0.1,0,0.1,0,0.2,0c-1,1.9-1,4.8,1.2,5.7c0,0,0,0,0,0
			c0.1,0.2,0.2,0.3,0.4,0.4c0.3,0.2,0.5,0.3,0.9,0.4c0.2,0,2.2,0,1.5,0.8c-0.1,0.1-0.1,0.2-0.1,0.3c-2.3,0.8-4.6,2-6.6,3.2
			c-2.4,1.5-4.7,3.4-6.6,5.6c-0.8,0.3-1.4,0.9-2.1,1.4c-0.8,0.7-1.7,1.3-2.3,2.2c0,0,0,0,0,0c0,0,0,0,0,0c-0.5,1.1-0.8,2.5-0.2,3.6
			c0.6,1.2,1.7,1.2,2.8,1.6c0,0,0.1,0,0.1,0c0.4,0.4,0.9,0.6,1.4,0.8c0.1,0.1,0.1,0.2,0.2,0.3c-3.2-0.9-7.6,1-8.8,4
			c-0.5,1.3,0.3,2,1.3,2.4c-2.2,1.3-3.2,4.2-3.3,6.6c-0.2,3,0.4,6.1,2.5,8.4c3.9,4.2,11.6,5,16.1,1.4c2-1.6,3.5-4.2,3.3-6.8
			c0.6,0.8,1.3,1.6,1.9,2.4c0,0,0,0,0,0c0,0.2,0.1,0.4,0.3,0.4c4-0.5,8.1-1,12.1-1.7c3.7,0.4,7.6,0.2,11.4,0.2c2.2,0,4.3,0,6.5,0
			c0.3,7,10.9,8.7,15.9,6.2c2.9-1.5,4.6-4.2,4.9-7.5c0.3-2.6-0.1-6.5-2.7-7.8c0,0,0,0,0-0.1c1.6-0.5,3.1-1,4.6-1.6
			c0.2-0.1,0.3-0.3,0.2-0.5c0.6-2.6-0.6-5.2-2.5-7c0.4-0.7,0-1.8-0.5-2.4c-0.6-0.7-1.5-1.1-2.4-1c-0.1-0.2-0.3-0.4-0.6-0.4
			c-0.7-0.2-1.6-0.1-2.4-0.1c-0.9,0-1.8-0.1-2.7-0.1c-0.4-0.1-0.9-0.2-1.3-0.3c0-0.4,0-0.8-0.2-1.2c0.9,0,1.8-0.1,2.7-0.6
			c3.8,0.1,7.7,0,11.5,0c2,0,4,0,6.1,0c2.1,0,4.4,0.2,6.5-0.1c0.1,0,0.1,0,0.2-0.1c0,0,0.1,0,0.1-0.1c0.3-0.4,0.4-1.1,0.2-1.5
			c0,0-0.1-0.1-0.1-0.1c0-0.1-0.1-0.1-0.1-0.1c-0.2,0-0.3-0.1-0.5-0.1c0.3-0.3,0.5-0.9,0.5-1.3c0.3-2.3,0.1-4.7,0.1-7
			c0-1.2,0-2.4,0-3.7c0-0.9,0.1-2,0-2.9c0.3,0,0.6-0.1,0.9-0.5c0.3-0.4,0.3-0.9,0.3-1.4C97.2,50.7,97.1,48.3,95.7,48.2z M69.6,48
			c0.2,0,0.3,0.1,0.4,0.2c0,0,0,0,0,0c-0.2,1.4-0.1,2.9-0.1,4.3c0,1.8,0,3.5,0,5.3c0,1.7,0,3.4,0,5.1c0,1.3-0.1,2.8,0,4.1
			c0,0.3,0,0.6,0,0.9c-0.2,0-0.4,0-0.6,0.1c0.2-1.4,0.1-3,0.1-4.4c0-1.8,0-3.6,0-5.3c0-1.7,0-3.4,0-5.1c0-1.7,0.2-3.5-0.1-5.1
			C69.3,48,69.5,48,69.6,48z M63.8,67.9c0.9,0.1,1.6,0.4,2.3,0.9c-1,0-2-0.1-2.7,0.2c-1,0.4-1.9,1.2-2.1,2.3
			c-0.9,0.1-1.7,0.2-2.5,0.3c-2.6-0.3-5.2-0.4-7.8-0.5c-1.8-0.1-3.6-0.3-5.4-0.4c0.7-0.1,1.4-0.2,2.2-0.2c2.7-0.3,5.3-0.3,8-0.6
			c1.9-0.2,4-0.7,5.4-2.1c0.1-0.1,0.2-0.2,0.2-0.3C62.2,67.7,63,67.7,63.8,67.9z M47.3,89.9c-1.2,0.3-2.5,0.6-3.7,0.8
			c0,0,0-0.1,0-0.1c0-0.8-0.5-1.7-1.2-2.1c0,0,0-0.1,0-0.1c0-0.3,0-0.5-0.2-0.7c-0.2-0.2-0.5-0.4-0.8-0.4c0,0,0,0,0,0
			c0.4-0.1,0.9-0.2,1.3-0.4c0.2-0.1,0.2-0.2,0.2-0.3c0.1-0.1,0.1-0.2,0.1-0.3c-0.2-0.9-0.3-1.9-0.5-2.8c1.4-1.7,2.3-4.6,2.2-6.7
			c-0.1-2.2-1.6-3.7-2.6-5.5c0.3,0,0.7-0.1,1-0.1c2.4,0.5,5,0.5,7.4,0.7c2,0.2,4.1,0.3,6.1,0.4c-3.6,1.1-6.8,3.4-8.6,7
			C46.5,82.3,46.1,86.5,47.3,89.9z M31.1,92.7c-2.2-5.6-4.4-11.2-6.5-16.8c0,0,0.1-0.1,0.1-0.1c2-5.9,4.6-11.6,6.9-17.4
			c0.2,0.2,0.4,0.6,0.3,1.1c-0.1,0.3-0.2,0.6-0.3,1c-0.3,1-0.7,2.1-1.1,3.1c-1.5,4.1-3,8.2-4.5,12.3c0,0,0,0,0,0
			c0,0-0.1,0.1-0.1,0.2c0.2,1.6,0.9,3.3,1.4,4.8c0.6,1.7,1.2,3.4,1.8,5.1c0.6,1.7,1.3,3.4,2,5c0.2,0.6,0.5,1.2,1,1.6
			c-0.4,0-0.7,0.1-1.1,0.2C31.1,92.8,31.1,92.8,31.1,92.7z M48,54.6c1.2,0,2.3,0,3.5,0.1c1.3,0,2.8,0.2,3.9-0.8
			c0.7-0.7,1-1.7,0.5-2.5c0.1,0,0.2-0.1,0.3-0.1c1,3.5,1.9,7,2.4,10.6c-0.2,0-0.4,0-0.7,0c-1.9,0.1-3.7-0.1-5.5-0.4
			c-0.9-0.1-1.7-0.3-2.6-0.6c-0.3-0.1-0.9-0.2-1.2-0.4c-0.6-0.5-0.5-1.3-0.4-1.9C48.5,57.4,48.5,55.9,48,54.6z M49,49.4
			c2.1,0.6,4.5,0.8,6.7,0.7c0,0.2,0,0.4,0.1,0.6c-1.1,0.1-2.1,0.3-3.2,0.2c-1.2-0.1-2.4-0.5-3.5-0.7c0,0,0,0,0-0.1
			C49.1,50,49,49.7,49,49.4z M61.7,63.2C61.7,63.3,61.7,63.3,61.7,63.2c0,0,0,0.1,0,0.1c0.2,2.2-0.5,3.8-2.6,4.9c-2,1-4.2,0.9-6.4,1
			c-4.4,0.2-8.7,0.8-13.1,1.4c-0.4,0.1-0.5,0.5-0.2,0.7c0.1,0.2,0.1,0.4,0.1,0.5c0,0.1,0,0.2,0,0.3c0,0-0.1,0.1-0.1,0.2
			c0,0.1,0,0.2,0,0.2c0,0,0,0,0,0c0,0,0,0,0,0c0.3,2.2,0.9,4.4,1.4,6.5c0.4,1.8,0.8,3.7,1.1,5.5c-0.3,0.1-0.6,0.1-1,0.2
			c-0.6-2.2-1.2-4.3-1.7-6.6c-0.5-2.8-0.7-5.7-1.2-8.5c4.5-1,9.1-1.7,13.6-2.6c2.7-0.5,6.9-1.1,7.2-4.6c0.9,0,1.9-0.1,2.7-0.4
			C61.6,62.5,61.6,62.9,61.7,63.2z M41.7,79.2c-0.5-2.2-0.9-4.5-1.7-6.6c0.1-0.2,0.2-0.5,0.2-0.7c0-0.2-0.1-0.3-0.1-0.5
			c0.1,0,0.3,0,0.4-0.1c0,1.7,0.5,3.5,0.9,5.1c0.3,1.7,0.5,3.7,1.3,5.3c-0.1,0.2-0.2,0.4-0.3,0.5C42.1,81.2,41.9,80.2,41.7,79.2z
			 M42.3,86.2c-0.3,0.1-0.6,0.1-0.9,0.1c-0.1-0.4-0.2-0.8-0.3-1.2c0.3-0.1,0.6-0.2,0.9-0.2C42.1,85.4,42.2,85.8,42.3,86.2z M42,76.4
			c-0.3-1.7-0.5-3.6-1.1-5.2c0.2,0,0.4-0.1,0.7-0.1c0.4,1.7,2,3.1,2.3,4.9c0.2,1.3,0,2.6-0.5,3.8c-0.1,0.3-0.3,0.7-0.4,1
			C42.8,79.4,42.3,77.9,42,76.4z M38.8,87.7C38.8,87.6,38.7,87.6,38.8,87.7c0.6-0.1,1.3-0.2,1.9-0.3c-0.1,0.3-0.2,0.6-0.5,0.8
			c-0.4,0.3-0.9,0.2-1.4,0.1C38.8,88.1,38.8,87.9,38.8,87.7z M36.8,86.9c0-0.3-0.1-0.6-0.2-0.9c1.4-0.2,2.7-0.5,4-0.8
			c0.1,0.4,0.3,0.8,0.4,1.2C39.7,86.7,38.3,86.8,36.8,86.9z M57,65.3C57,65.3,57,65.3,57,65.3c-0.4-0.6-0.8-1.1-1.1-1.6
			c-0.2-0.3-0.3-0.7-0.5-1c0.8,0,1.7,0.1,2.5,0c0.2,0,0.5,0,0.7,0C58.6,63.8,57.9,64.7,57,65.3z M51.1,62.1c0.1,0,0.3,0.1,0.4,0.1
			c1.1,0.2,2.2,0.4,3.3,0.5c0.1,0.5,0.3,1,0.5,1.4c0.3,0.6,0.7,1.1,1.1,1.6c-0.5,0.3-1.1,0.5-1.7,0.6c-1.8,0.5-3.6,0.7-5.4,1.1
			c-3.8,0.7-7.5,1.6-11.3,2.3c-0.1,0-0.1,0.1-0.1,0.2c0,0,0,0,0,0c0,2.8,0.6,5.7,1.1,8.4c0.4,2.2,0.8,4.6,1.5,6.8
			c-0.5,0.1-1,0.2-1.4,0.3c-0.3,0.1-1.9,0.5-2.6,0.5c-0.3-0.9-0.6-1.9-0.9-2.8c-0.4-1.5-0.7-3-1-4.5c-0.3-1.6-0.5-3.2-0.8-4.8
			c0-1.3-0.4-2.5-0.2-3.7c0.1-0.4,0.3-0.9,0.6-1.2c0.9-1,2.3-1.5,3.5-2c1.5-0.7,3-1.3,4.5-1.9C45.3,63.8,48.2,63,51.1,62.1z
			 M36.6,88.4C36.6,88.4,36.6,88.4,36.6,88.4c0,0.2,0,0.4,0.2,0.5c-0.5,0.3-0.9,0.6-1.4,0.8C34.6,90,33.9,90,33.2,90
			c-0.3,0-0.5,0.1-0.8,0.2c-0.2,0-0.5,0.1-0.7,0.2c0-0.1-0.1-0.2-0.1-0.3c1.1-0.7,2.4-0.8,3.6-1.1C35.7,88.9,36.3,88.7,36.6,88.4z
			 M32,91.2c1.8-0.8,4-0.3,5.2-2.2c0,0,0-0.1,0-0.1c0-0.1,0-0.1,0-0.2c-0.1-0.1-0.2-0.2-0.2-0.3c0-0.2,0.1-0.3,0.3-0.3
			c0.3-0.1,0.6,0,0.9,0c0,0.2,0,0.6,0.3,0.6c0.5,0.6,1.4,0.6,2,0.2c0.3-0.2,0.7-0.6,0.8-1c0.2,0,0.4,0,0.5,0.2
			c0.1,0.2-0.1,0.5,0,0.7c0,0.1,0.1,0.1,0.2,0.1c0.2,0.2,0.4,0.5,0.5,0.8c0.2,0.3,0.3,0.7,0.4,1.1c0,0,0,0.1,0.1,0.1
			c-0.9,0.2-1.8,0.3-2.7,0.5c-2.4,0.4-4.9,0.5-7.2,1C32.5,92.2,32.2,91.7,32,91.2z M58.7,47.3c1.2,2.2,2.2,4.6,3,7
			c0.4,1.2,0.7,2.3,1,3.5c0.1,0.5,0.3,1.1,0.4,1.6c0.1,0.8-0.1,1.4-0.6,1.8c-1.2,0.5-2.5,0.6-3.8,0.7c-0.6-3.6-1.3-7.2-2.5-10.6
			c0.1,0,0.2-0.1,0.2-0.3c-0.2-2.7-0.7-5.5-1.5-8.1c-0.1-0.4-0.2-0.8-0.4-1.2C56.2,43.3,57.6,45.3,58.7,47.3z M52.2,39.6
			c0.2,0.1,0.4,0.2,0.6,0.4c0,0,0.1,0,0.1,0.1c1.3,1.1,1.6,3.3,2,4.8c0.4,1.7,0.7,3.4,0.9,5.1c-2.3,0-4.4-0.2-6.7-0.6
			C48.8,46,48.2,37.7,52.2,39.6z M54.9,33.6c-0.5,0.3-1.1,0.6-1.8,0.7c-0.2,0-0.3,0.4-0.1,0.5c0.5,0.4,0.8,0.8,1.1,1.3
			c-1-0.4-2-0.6-3.1-0.7c-0.2,0-0.3,0.3-0.2,0.4c0.1,0.3,0.3,0.5,0.5,0.7c-1.6,0.3-3.1-0.1-4.4-1c0,0-0.1-0.1-0.1-0.1c0,0,0,0,0,0
			c0.3-0.3,0.5-0.6,0.7-1c1.3-0.2,2.6-0.7,3.8-1.4C52.2,33.9,53.6,34,54.9,33.6z M30.1,22.7c1.2-0.2,2.5-0.3,3.7-0.7
			c0.2,0,0.2-0.2,0.2-0.4c2.3-3.6,6.3-5.5,10.5-5.3c3.8,0.2,7.7,2.1,9.3,5.7c1.7,3.7,0.3,8.2-3.1,10.4c-1.2,0.7-4.9,2.5-5.6,0.4
			c-0.3-1-0.2-2.2-0.3-3.2c-0.1-0.9-0.2-1.9-0.3-2.8c0.1-0.2,0.1-0.5-0.2-0.6c-2.5-0.7-5-1.3-7.5-2C34.5,23.8,32.3,23.1,30.1,22.7z
			 M44.8,33.9c-0.4,0.6-0.9,1.2-1.4,1.7c-0.3-0.8-0.5-1.6-0.4-2.4c0.1-0.7,0.6-1,1.2-1.3c0,0.3,0.1,0.7,0.2,1
			C44.4,33.3,44.6,33.7,44.8,33.9z M33.8,24.9C33.9,24.9,33.9,24.9,33.8,24.9c0,0.1,0,0.1,0,0.1c-0.1,0.8,0,1.7,0,2.5
			c-1.2-0.1-1.9-1.2-1.3-2.4c0.1-0.2-0.1-0.4-0.3-0.3c-0.4,0.2-0.9,0.5-1.3,0.7c0.5-0.7,1.2-1.1,2-1.5c1.1,0.3,2.2,0.6,3.3,0.9
			c1.9,0.5,3.9,1.1,5.8,1.6c-1,0.1-2-0.1-3-0.4c-0.2-0.1-0.4,0.2-0.3,0.4c0.2,0.2,0.3,0.4,0.5,0.6c-2-0.3-3.8-1.1-5.3-2.5
			C33.9,24.6,33.7,24.7,33.8,24.9z M34.3,25.3c1.6,1.5,3.7,2.4,5.9,2.6c0.3,0,0.4-0.4,0.1-0.6c-0.2-0.1-0.4-0.3-0.6-0.4
			c1.2,0.3,2.6,0.4,3.8,0.1c0.1,0,0.3,0.1,0.4,0.1c0,1.1,0,2.3,0.1,3.5c-0.6,0.2-1.2,0.5-1.8,0.8c-0.8,0.3-1.7,0.5-2.6,0.6
			c-0.8,0.1-1.6,0.1-2.4,0c-0.6-0.1-1.3-0.3-1.9-0.4C34.9,29.4,34.6,27.4,34.3,25.3z M38.7,38.8c0,0-0.1,0-0.1,0
			c-1.5-0.1-2.6-2.1-3.5-3.1c-0.6-0.7-1.3-1.4-0.9-2.5c0.2-0.5,0.6-0.8,1-1.2c0,0,0.1,0,0.1-0.1c1.2,0.8,3.2,0.8,4.6,0.7
			c1.3-0.2,3.2-0.5,4.3-1.4c0,0.1,0,0.3,0.1,0.4c-0.7,0.3-1.3,0.7-1.5,1.4c-0.3,1,0,2.2,0.4,3.1C41.8,37.2,40.4,38.1,38.7,38.8z
			 M41.3,38.4c1.7-1,3-2.4,3.8-4.2c0.4,0.3,0.9,0.4,1.5,0.3C45.2,36.5,43.4,37.7,41.3,38.4z M44.4,38.3c-0.1-0.1-0.2-0.2-0.3-0.2
			c0.5-0.3,0.9-0.6,1.3-0.9c0.4-0.3,0.8-0.7,1.2-1c0.2,0.1,0.4,0.3,0.6,0.4c-0.8,0.8-1.6,1.6-2.3,2.4C44.7,38.7,44.5,38.4,44.4,38.3
			z M44.7,42.2c-0.2-0.6-0.3-1.2-0.4-1.9c1.3-1,2.4-2.4,3.4-3.6c0.5,0.2,0.9,0.3,1.4,0.4C47.7,38.9,46.3,40.6,44.7,42.2z M45.8,42.1
			c1.4-1.4,2.6-2.9,3.7-4.5c0.5,0.4,1,0.7,1.5,1.1c-1.8,0.1-2.5,1.9-2.7,3.5c-0.3,2.6-0.4,5.5,0.2,8.1c0,0,0,0,0,0c0,0,0,0,0,0
			c-0.4,0-0.9,0-1.3,0C46.8,47.6,46.5,44.8,45.8,42.1z M49.4,50.9c1.7,0.8,4,1.1,5.9,0.7c0.5,1-0.2,2-1.3,2.3C53.4,54,52.7,54,52,54
			c-1.4,0-2.8-0.1-4.2-0.1c-2.7-0.1-5.4-0.3-8.1-0.1c0-0.9,0-1.7,0-2.6c1.7,0.1,3.3,0,5,0C46.2,51.1,47.9,51.3,49.4,50.9z
			 M46.2,49.5c0,0.3-0.1,0.6,0,0.9c-0.6,0-1.1,0.1-1.7,0.1c-1.6,0-3.2,0-4.8,0.3c0-0.2,0-0.5,0-0.7c0,0,0,0,0,0
			C41.8,50.1,44.1,49.7,46.2,49.5z M39.4,55.2c0.2,0,0.3-0.2,0.4-0.4c0-0.2,0-0.4,0-0.6c2.6,0.3,5.2,0.4,7.8,0.4
			c0.1,1,0.2,2.1,0.1,3.1c-0.1,0.8-0.5,1.9-0.1,2.7c0.4,0.7,1.3,1.1,2.2,1.3c0,0,0,0,0,0c-2.9,0.6-5.8,1.6-8.5,2.7
			c-1.5,0.6-3,1.2-4.5,1.9c-1,0.5-2.1,0.9-2.8,1.7c-1,0.8-1,2.4-0.8,3.8c0,0.3,0,0.6,0.1,1c0.2,1.5,0.4,3,0.7,4.4
			c0.3,1.7,0.6,3.3,1,4.9c0.3,1.1,0.5,2.3,0.9,3.5c0.1,0.5,0.2,0.9,0.3,1.4c0.1,0.2,0.3,0.4,0.5,0.6c-0.8,0.8-2.6,0.9-3.6,1.1
			c-0.6,0.1-1.2,0.3-1.5,0.7c0,0,0-0.1,0-0.1c0,0,0,0,0,0c-0.2-0.5-0.4-1-0.6-1.4c-0.5-1.3-1-2.7-1.5-4c-0.5-1.3-1-2.7-1.4-4
			c-0.4-1.2-0.7-2.5-1.3-3.6c0,0,0.1-0.1,0.1-0.1c1.6-4.2,3.1-8.4,4.6-12.5c0.4-1,0.8-2,1.1-3c0.2-0.6,0.4-1.3,0.2-1.9
			c-0.1-0.4-0.3-0.7-0.6-0.9c0.6-0.4,1.1-1.1,1.5-1.8c0.4-0.6,0.7-1.3,0.9-2.1c0.3,0,0.6,0,0.8,0c0,0.1,0.1,0.2,0.1,0.2
			C36.6,54.8,38,55.1,39.4,55.2z M34.4,49c0.5,0.2,0.9,0.5,1.3,0.7c0,0.1,0.1,0.3,0.2,0.2c1-0.1,1.9-0.4,2.8-0.7c0,0.1,0,0.3,0,0.4
			c-1,0.1-2.1,0.3-3.1,0.7c-0.5-0.4-1.1-0.7-1.8-0.8c0-0.3-0.4-0.6-0.6-0.9C33.7,48.8,34,48.9,34.4,49z M32.8,49.1
			c0.1,0.1,0.2,0.2,0.3,0.4c-0.4,0-0.8,0-1.2,0c0-0.3,0-0.7,0.1-1C32.2,48.6,32.5,48.8,32.8,49.1z M35.4,42.1
			c0.1-0.5,0.1-1.1,0.1-1.6c0,0,0.1,0,0.1,0c0.2,0,0.3,0,0.5,0.1c-0.2,1.2,0,3.1-0.9,4c-0.1-0.1-0.3-0.1-0.4-0.2
			c-0.1-0.1-0.2-0.2-0.2-0.3C35,43.6,35.2,42.7,35.4,42.1z M33.1,41.2c0.3-0.9,0.7-1.4,1.5-1.7c0.1,0.8,0.2,1.6,0,2.4
			c-0.1,0.7-0.6,1.2-0.8,1.8C32.6,43.5,32.9,42.1,33.1,41.2z M33.1,44.3c-0.4,1.2-0.8,2.4-1,3.7c-0.1,0-0.1,0-0.2-0.1c0,0,0,0,0,0
			c0,0,0.1,0,0.1-0.1c0.2-0.7,0.3-1.5,0.5-2.3c0.1-0.5,0.3-1,0.3-1.5C32.9,44.2,33,44.2,33.1,44.3z M32.6,43.7
			c-0.3,0.6-0.4,1.3-0.5,1.9c0,0,0,0.1,0,0.1c0-0.8-0.1-1.5-0.2-2.2c0.2,0,0.4-0.1,0.6-0.1C32.5,43.5,32.5,43.6,32.6,43.7z
			 M31.2,46.7c0-1.2,0.2-2.5,0-3.7c0.2,0,0.4-0.1,0.6-0.1c0.2,0,0.3-0.1,0.5-0.1c0,0.1,0,0.2,0,0.3c-0.2,0.1-0.4,0.1-0.6,0.2
			c-0.1,0-0.1,0-0.2,0.1c0,0,0,0,0,0c-0.1,0-0.1,0.1,0,0.2c-0.3,1.9-0.2,4.2-0.1,6.1c-0.1,0-0.2,0.1-0.3,0.1
			C31.2,48.7,31.1,47.6,31.2,46.7z M35.3,51c0.1,0.1,0.3,0.1,0.4,0c1.1-0.1,2.2-0.4,3.3-0.6c0.1,1.3,0.1,2.7,0,4
			c-1.1-0.1-2.2-0.5-3.3-0.8c0-0.2-0.1-0.4-0.3-0.4c-0.4,0-0.7,0.1-1.1,0c-0.3-0.1-0.6-0.2-0.9-0.3c0.2-0.4,0.2-0.8,0-1.1
			c-0.3-0.5-1-0.9-1.5-0.6c-0.6,0.1-1,0.8-0.9,1.4c0.1,0.8,1,1.4,1.7,1.1c0.1,0,0.2-0.1,0.3-0.2c-0.3,0.2-0.5,0.5-0.7,0.7
			c-0.3,0.2-0.7,0.3-1.1,0.4c-0.4-0.5-0.8-0.8-1.1-1.4c-0.3-0.5-0.4-1.1-0.5-1.7C31.3,50.1,33.3,49.4,35.3,51z M32.5,53
			c-0.4,0.2-1-0.1-1-0.5c0-0.4,0.2-0.6,0.5-0.8c0.3,0,0.5,0,0.7,0.2C33,52.3,32.9,52.8,32.5,53z M30.4,56c0,0.1,0.1,0.1,0.2,0.2
			c0,0.1,0.1,0.2,0.1,0.2c0,0.2-0.1,0.3-0.2,0.4c-0.3,0.1-0.6-0.2-0.5-0.5c0.1,0,0.1-0.1,0.1-0.2c0-1.1-1.2-1.6-1.5-2.6
			c0.1-0.2,0.2-0.3,0.3-0.5c0.1-0.1,0.1-0.1,0.2-0.2c0.1,0.4,0.3,0.9,0.5,1.2c0.1,0.2,0.2,0.5,0.3,0.7C30.1,55.1,30.2,55.5,30.4,56
			C30.4,55.9,30.4,56,30.4,56z M24.1,55c0,0.2,0,0.3,0.1,0.5c-1.5-1.2-0.8-3.1-0.5-4.8c0.3,0,0.5,0,0.8,0.1
			C24.1,52.1,23.9,53.6,24.1,55z M24.6,50.1c-0.5,0-1,0-1.5-0.1c-0.2,0-0.4,0-0.6,0c0.8-0.3,1.6-0.6,2.4-0.8
			C24.8,49.5,24.7,49.8,24.6,50.1z M26.6,56.4c-0.5-0.1-1.2-0.2-1.5-0.7c-0.2-0.2-0.2-0.8-0.3-1.2c0-0.5,0-1.1,0-1.6
			c0.1-1.3,0.4-2.6,0.6-3.9c1.7-0.4,3.3-0.6,5.1-0.7c0,0.5,0,1,0.1,1.5c-0.6,0.3-1.1,0.7-1.4,1.4c0,0,0,0,0,0c0,0-0.1,0.1-0.1,0.1
			C29,51.7,29,52,29,52.3c-0.2,0.1-0.3,0.3-0.5,0.5c-0.2,0.3-0.3,0.5-0.3,0.9c0,0,0,0.1,0,0.1c0,1,1.2,1.4,1.2,2.4
			c0,0.1,0,0.1,0.1,0.1c-0.1,0.3-0.1,0.5,0.1,0.8c0.2,0.3,0.6,0.4,1,0.3c0.3-0.1,0.6-0.5,0.5-0.8c0-0.2-0.2-0.6-0.5-0.7
			c-0.1-0.3-0.2-0.7-0.3-1c0.1,0.1,0.3,0.2,0.4,0.2c0,0,0.1,0,0.1,0c0.6,0.2,1.1,0,1.6-0.3c0.3-0.2,0.8-0.7,0.9-1.1
			c0.2,0.1,0.3,0.2,0.5,0.3c-0.4,0.6-0.7,1.2-1.1,1.8c-0.4,0.6-1,1.2-1.3,1.8c0,0,0,0,0,0c-0.4-0.2-0.9-0.2-1.4-0.1
			c-0.7,0.1-1.4,0.2-2.1,0.4C28.4,57.1,27.3,56.6,26.6,56.4z M16.3,65.5c2.6-2.5,5.7-4.5,9-5.9c1.5-0.6,3.1-1.2,4.7-1.5
			c0.5-0.1,1,0,1.3,0.2c-2.7,5.6-4.8,11.6-7,17.5c-0.1,0-0.2,0.1-0.2,0.2c-2.1-0.5-4.3-0.9-6.4-1.3c-1.8-0.3-5.3-0.4-6.1-2.4
			c0.1-0.9,0.4-1.8,0.8-2.5C13.6,68.3,14.9,66.8,16.3,65.5z M10,74.1c-0.7-1-0.2-2.2,0-3.3c0.7-0.5,1.3-1.2,2-1.7
			c0.2-0.2,0.4-0.3,0.6-0.5c-1,1.4-1.8,3-1.6,4.7c0.1,0.6,0.3,1.2,0.5,1.6C11,74.8,10.4,74.8,10,74.1z M6.1,80.6
			c0.8-1.4,2.4-2.4,3.9-2.8c1.5-0.5,2.8-0.4,4.3-0.2c1.9,2.9,3.9,5.7,5.9,8.5c0.4,0.5,0.8,1.1,1.2,1.7c-0.6-0.2-1.3-0.3-1.9-0.5
			c-1.1-0.3-1.9-0.6-2.7-1.3c0-0.1-0.1-0.2-0.3-0.3c-2-0.5-4-1.1-6-1.7c-0.8-0.3-1.7-0.6-2.5-0.9C6.9,82.6,5.1,82.3,6.1,80.6z
			 M16.5,86.5c0.3,0.5,0.9,0.9,1.5,1.1c0.2,0.1,0.3,0.1,0.5,0.2c0,0,0,0,0,0.1c0,0,0,0,0,0c-0.6,1-1.1,2-1.6,3
			c-0.3,0.5-0.6,1-1.1,1.3c-0.6,0.3-1.2,0-1.8-0.1C15.1,90.4,15.9,88.4,16.5,86.5z M13.5,91.6c-0.4-0.3-0.9-0.5-1.4-0.7
			c0.1-0.6,0.3-1.1,0.6-1.7c0.5-0.8,1.2-0.6,2-0.4C14.3,89.7,13.9,90.7,13.5,91.6z M15,88.2c-0.8-0.2-1.8-0.6-2.4,0.1
			c-0.7,0.7-1,1.8-1.2,2.7c0,0.1,0,0.3,0.2,0.4c0.5,0.3,1.1,0.6,1.7,0.7c0,0.1,0.1,0.2,0.2,0.3c2.5,2.5,4.5-1.5,5.5-3.7
			c1,1.8,0.4,4-1,5.5c-1.6,1.7-4.2,2.1-6.3,1c-2-1-3.1-3.3-2.8-5.5c0.3-2.1,1.7-3.2,3.3-4.1c1.2,0.4,2.4,0.8,3.6,0.9
			C15.6,87,15.3,87.6,15,88.2z M20.3,99.8c-3.1,1.8-7.2,1.7-10.5,0.4c-3.3-1.4-5.5-4-5.9-7.6c-0.4-3.4,0.3-6.5,2.8-8.8c0,0,0,0,0,0
			c1.5,0.7,3.1,1,4.6,1.5c-1.7,0.9-2.9,2.9-3,4.7C8,92.5,9.6,95,12,96c2.5,1,5.3,0.2,7-1.9c1.1-1.4,1.7-3.8,0.8-5.5
			c0.5,0.2,0.9,0.3,1.4,0.5c0.4,0.1,0.8,0.2,1.3,0.2c0.6,0.9,1.2,1.7,1.8,2.6C24.6,95.1,23.3,98.1,20.3,99.8z M27.4,94.9
			C27.4,94.9,27.4,94.8,27.4,94.9c-2.1-3.3-4.5-6.2-6.7-9.4c-2.2-3.1-4.3-6.3-6.5-9.4c0-0.1-0.1-0.1-0.1-0.1c0,0-0.1-0.1-0.1-0.1
			c-1.6-0.4-2.2-1.7-2.2-3c0.8,1.1,2.6,1.4,3.8,1.6c3,0.6,5.9,1.3,8.9,1.8c2,5.5,4.1,11,6.4,16.5c0,0.1,0.1,0.1,0.1,0.1
			c0,0.1,0,0.2,0.1,0.2c0.5,0,1.1-0.1,1.6-0.1c0.3,0,0.5,0,0.8-0.1c2.2,0,4.6-0.5,6.7-0.9c2.5-0.4,5-0.9,7.4-1.5
			c0.1,0,0.3-0.1,0.3-0.3c0-0.1,0-0.1,0-0.2c-0.6-4-0.9-8,1.3-11.6c2-3.3,5.7-5.4,9.4-6.2c0.2,0,0.4-0.1,0.6-0.1
			c-2.8,0.8-5.4,2.4-7.2,4.7c-3.2,4-3.9,9.4-2.1,14.1C42.6,92.6,35,93.9,27.4,94.9z M57.2,93.4c-2.9,0-5.8,0-8.7,0c-2,0-4-0.1-6,0
			c8.5-1.5,17-3.5,25.3-5.9c1.4,0.3,2.1,2.4,1.8,3.7c-0.4,1.5-2,1.8-3.4,1.9C63.2,93.4,60.2,93.4,57.2,93.4z M69,87.4
			c0.2,0,0.5-0.1,0.7-0.2c0.9,0.5,1.6,1.2,2,2.2c0.5,1.4,0.1,2.9-0.8,4.1c-0.9,1.1-2.2,1.7-3.5,1.7c-1.3,0-2.2-0.6-3.3-1.1
			c2.3,0,5.4-0.1,6.2-2.4C70.7,90.2,70.2,88.3,69,87.4z M77.3,93.4c-0.4,2.8-2,5.1-4.6,6.4c-4.5,2.1-13.5,0.7-14.6-5
			c1,0.1,2.1-0.2,3.1-0.3c0.7-0.1,1.4-0.2,2.1-0.3c0.8,1.3,2.8,1.8,4.2,1.7c1.7-0.1,3.2-0.9,4.2-2.3c1.4-2,1-5.3-1-6.7
			c0.4-0.2,0.8-0.3,1.3-0.5c1-0.3,2-0.5,3-0.9C77.3,87.4,77.7,90.5,77.3,93.4z M76.9,74.1c0.2,0.3,0.3,0.7,0.3,1.1
			c0,0.1,0,0.2,0,0.3c-0.1-0.1-0.3-0.2-0.4-0.3c-0.5-0.4-1.1-0.7-1.7-1.1c0-0.3,0-0.7,0-1.1C75.8,73.2,76.5,73.4,76.9,74.1z
			 M72.6,72.8c0.5,0,1.5-0.1,1.8,0.3c0.1,0.2,0.1,0.5,0.1,0.8c-0.9-0.4-1.8-0.8-2.8-1.1C72,72.7,72.3,72.7,72.6,72.8z M72.1,73.7
			c0.8,0.3,1.6,0.6,2.5,1.1c0,0.1,0.1,0.1,0.2,0.1c3,1.6,5.7,4.3,4.8,8c0,0,0,0,0,0c-9.6,3.2-19.4,5.9-29.3,8.1
			c-1.7-4.6-1-10,2.1-13.8c3.1-3.9,8.3-5.8,13.2-5c0.1,0,0.1,0,0.1,0C67.9,72.4,70.1,73,72.1,73.7z M64.4,71.3
			c0.9-0.7,1.9-0.7,3-0.7c0,0.4,0,0.7,0,1.1c-0.6-0.1-1.1-0.2-1.6-0.3C65.3,71.3,64.8,71.3,64.4,71.3z M63.7,71.2
			c-0.6,0-1.2,0-1.9,0c0.5-0.8,1.1-1.4,2.1-1.7c1.1-0.3,2.2,0.1,3.3-0.1c0.5-0.1,1-0.3,1.3-0.6c-0.1,0.4,0.1,0.8,0.4,1
			C67.1,69.9,64.5,69.4,63.7,71.2z M94.5,68.6c0,0.1,0,0.3,0,0.4c0,0.1,0,0.3-0.1,0.4c-1.9-0.2-4-0.1-5.9-0.1c-2.1,0-4.2,0-6.3,0
			c-4.3,0-8.5-0.1-12.8,0c-0.1-0.1-0.2-0.2-0.3-0.4c0-0.2,0-0.3,0.1-0.5c2,0.2,4,0.1,6,0.1c2.2,0,4.5,0,6.7,0c2.2,0,4.3,0,6.5,0
			C90.4,68.6,92.6,68.9,94.5,68.6z M71.7,62.4c0-1.6,0-3.3,0-4.9c0-1.6,0-3.3,0-4.9c0-0.5,0-1,0-1.5c3.2-0.1,6.5,0.1,9.8,0.1
			c3.2,0,6.5,0.2,9.7,0c0.5,0.2,1,0.3,1.5,0.6c0.5,0.3,0.9,0.7,1.4,1c-0.2,1-0.1,2-0.1,3c0,1.3,0,2.6,0,3.9c0,2.2-0.2,4.7,0.1,6.9
			c0,0.2-0.1,0.4-0.2,0.6c-0.2,0.3-0.5,0.3-0.7,0.5c0,0-0.1,0.1-0.1,0.2c-1.5-0.1-3.1,0.1-4.6,0.1c-2.2,0-4.3,0-6.5,0
			c-2.2,0-4.3,0-6.5,0c-1.2,0-2.4,0-3.6,0c-0.2-0.2-0.4-0.4-0.5-0.7c0,0,0,0,0-0.1C71.8,65.6,71.7,64,71.7,62.4z M94.8,52.4
			c-0.4-0.6-1.2-1.1-1.9-1.4c-0.7-0.3-1.4-0.5-2.2-0.4c-3-0.2-6.2,0-9.2,0c-3.2,0-6.5,0.2-9.8,0.1c0-0.9,0-1.9-0.2-2.8
			c0,0,0,0,0-0.1c0.1-0.2,0.1-0.3,0.2-0.4c0.2-0.2,0.4-0.3,0.7-0.4c1.6,0.2,3.3,0.1,4.9,0.1c1.9,0,3.7,0,5.6,0c1.9,0,3.7,0,5.6,0
			c1.6,0,3.3,0.1,5-0.1c1.4,0.2,1.6,1.6,1.7,2.8C95.3,50.5,95.5,51.9,94.8,52.4z M96,50.5c0-0.3-0.1-0.6-0.1-0.8
			c0-0.3-0.1-0.6-0.1-1c0.3,0.3,0.5,0.5,0.5,1C96.4,50.1,96.2,50.3,96,50.5z"/>
		<path class="st22" d="M82.7,65.9c3.8,0,6.8-3.1,6.8-6.8c0-0.8-0.1-1.5-0.4-2.3l-1,0.4c0.2,0.6,0.3,1.3,0.3,1.9
			c0,3.2-2.6,5.7-5.7,5.7c-3.2,0-5.7-2.6-5.7-5.7c0-3.2,2.6-5.7,5.7-5.7c0.2,0,0.3,0,0.5,0l0.1-1.1c-0.2,0-0.4,0-0.6,0
			c-3.8,0-6.8,3.1-6.8,6.8C75.9,62.8,78.9,65.9,82.7,65.9z"/>
		<path class="st22" d="M87.7,56.1l1-0.5c-0.4-0.8-0.9-1.5-1.6-2.1c-0.7-0.6-1.5-1-2.4-1.2l-0.3,1.1c0.7,0.2,1.4,0.5,1.9,1
			C86.9,54.9,87.4,55.5,87.7,56.1z"/>
		<polygon class="st23" points="83.2,53.4 83.2,53.4 82.7,59.1 		"/>
		<polygon class="st23" points="88.1,57.2 82.7,59.1 88.1,57.2 		"/>
		<path class="st24" d="M76.9,59.1c0,3.2,2.6,5.7,5.7,5.7c3.2,0,5.7-2.6,5.7-5.7c0-0.6-0.1-1.3-0.3-1.9l-5.4,1.9l0.5-5.7
			c-0.2,0-0.3,0-0.5,0C79.5,53.3,76.9,55.9,76.9,59.1z M79.6,58.7c-0.4,0-0.7-0.3-0.7-0.7s0.3-0.7,0.7-0.7c0.4,0,0.7,0.3,0.7,0.7
			S80,58.7,79.6,58.7z M81.8,60.6c-0.2,0-0.4-0.2-0.4-0.4c0-0.2,0.2-0.4,0.4-0.4s0.4,0.2,0.4,0.4C82.2,60.5,82,60.6,81.8,60.6z
			 M85,60.6c0.4,0,0.8,0.4,0.8,0.8s-0.4,0.8-0.8,0.8c-0.4,0-0.8-0.4-0.8-0.8S84.6,60.6,85,60.6z"/>
		<path class="st13" d="M94.2,59.7c0-1.3,0-2.6,0-3.9c0-0.1,0-0.3,0-0.4c0-0.9-0.1-1.8,0.1-2.6c-0.5-0.3-0.9-0.8-1.4-1
			c-0.5-0.3-1-0.4-1.5-0.6c-3.2,0.2-6.5,0-9.7,0c-3.3,0-6.6-0.2-9.8-0.1c0,0.3,0,0.6,0,0.9c0,0.2,0,0.4,0,0.6c0,1.6,0,3.3,0,4.9
			c0,1.6,0,3.3,0,4.9c0,1.6,0.1,3.2-0.1,4.8c0,0,0,0,0,0.1c0.1,0.3,0.3,0.4,0.5,0.7c1.2,0,2.4,0,3.6,0c2.2,0,4.3,0,6.5,0
			c2.2,0,4.3,0,6.5,0c1.5,0,3.1-0.1,4.6-0.1c0-0.1,0-0.1,0.1-0.2c0.2-0.2,0.5-0.3,0.7-0.5c0.1-0.2,0.2-0.4,0.2-0.6
			C94,64.3,94.2,61.9,94.2,59.7z M84.5,53.5l0.3-1.1c0.9,0.2,1.7,0.6,2.4,1.2c0.7,0.6,1.2,1.3,1.6,2.1l-1,0.5l-4.4,2.1L84.5,53.5z
			 M82.7,65.9c-3.8,0-6.8-3.1-6.8-6.8c0-3.8,3.1-6.8,6.8-6.8c0.2,0,0.4,0,0.6,0l-0.1,1.1l-0.5,5.7l5.4-1.9l1-0.4
			c0.3,0.7,0.4,1.5,0.4,2.3C89.5,62.8,86.4,65.9,82.7,65.9z"/>
		<path class="st24" d="M87.7,56.1c-0.3-0.6-0.8-1.2-1.3-1.7c-0.6-0.5-1.2-0.8-1.9-1l-1.1,4.7L87.7,56.1z M85.4,55
			c0.2,0,0.4,0.2,0.4,0.4c0,0.2-0.2,0.4-0.4,0.4c-0.2,0-0.4-0.2-0.4-0.4C85,55.2,85.2,55,85.4,55z"/>
		<path class="st13" d="M79.6,57.3c-0.4,0-0.7,0.3-0.7,0.7s0.3,0.7,0.7,0.7c0.4,0,0.7-0.3,0.7-0.7S80,57.3,79.6,57.3z"/>
		<path class="st25" d="M81.8,59.8c-0.2,0-0.4,0.2-0.4,0.4c0,0.2,0.2,0.4,0.4,0.4s0.4-0.2,0.4-0.4C82.2,60,82,59.8,81.8,59.8z"/>
		<path class="st13" d="M85,62.2c0.4,0,0.8-0.4,0.8-0.8s-0.4-0.8-0.8-0.8c-0.4,0-0.8,0.4-0.8,0.8S84.6,62.2,85,62.2z"/>
		<path class="st25" d="M85.4,55.8c0.2,0,0.4-0.2,0.4-0.4c0-0.2-0.2-0.4-0.4-0.4c-0.2,0-0.4,0.2-0.4,0.4
			C85,55.6,85.2,55.8,85.4,55.8z"/>
		<path class="st14" d="M50.6,32.5c-1.2,0.7-4.9,2.5-5.6,0.4c-0.3-1-0.2-2.2-0.3-3.2c-0.1-0.9-0.2-1.9-0.3-2.8
			c0.1-0.2,0.1-0.5-0.2-0.6c-2.5-0.7-5-1.3-7.5-2c-2.2-0.6-4.4-1.3-6.6-1.7c1.2-0.2,2.5-0.3,3.7-0.7c0.2,0,0.2-0.2,0.2-0.4
			c0.3-0.5,0.7-1,1.1-1.5c0.1,0.6,0.3,1.2,0.7,1.7c0.8,1,1.9,1.6,3.2,2c2,0.6,4.2,0.8,6.3,0.5c2.1-0.4,4.1-1.5,5.2-3.3
			c0.4-0.7,0.7-1.5,0.7-2.4c1.1,0.9,2.1,2,2.7,3.3C55.4,25.8,54.1,30.3,50.6,32.5z"/>
		<path class="st26" d="M38.9,20.6c1.2,0,2.5-0.2,3.3-1.1c0.2-0.2,0.4-0.5,0.5-0.8c0.1-0.3,0-0.7-0.2-0.9c-0.2-0.2-0.6-0.3-0.9-0.3
			c-0.7,0-1.5,0.2-2.2,0.5c-0.4,0.2-0.7,0.4-1,0.7c-0.3,0.3-0.5,0.7-0.5,1.1c0,0.1,0,0.2,0,0.4C38.1,20.5,38.5,20.6,38.9,20.6z"/>
		<path class="st11" d="M44,30.5c-0.6,0.2-1.2,0.5-1.8,0.8c-0.2,0.1-0.4,0.2-0.7,0.2c-0.1-0.9-0.2-1.7-0.3-2.6
			c-1.8,0.4-3.7,0-5.2-0.8c0.2,0,0.5,0,0.7,0.2c0.3,0.2,0.8-0.2,0.4-0.5c-0.5-0.3-1.3-0.6-1.8-0.1c-0.3-0.2-0.6-0.4-0.9-0.7
			c-0.1-0.6-0.2-1.1-0.3-1.7c1.6,1.5,3.7,2.4,5.9,2.6c0.3,0,0.4-0.4,0.1-0.6c-0.2-0.1-0.4-0.3-0.6-0.4c1.2,0.3,2.6,0.4,3.8,0.1
			c0.1,0,0.2,0.1,0.4,0.1C43.9,28.1,43.9,29.3,44,30.5z"/>
		<path class="st27" d="M43,36c-1.2,1.2-2.6,2.1-4.4,2.7c0,0-0.1,0-0.1,0c0,0,0,0-0.1,0c1.9-1.6,3.1-4,3.1-6.5
			c0.9-0.2,1.8-0.6,2.5-1.1c0,0.1,0,0.3,0.1,0.4c-0.7,0.3-1.3,0.7-1.5,1.4C42.3,33.9,42.6,35.1,43,36z"/>
		<path class="st11" d="M47.2,36.5c-0.4,0.4-0.8,0.8-1.3,1.3c-0.1,0-0.2,0.1-0.3,0.1c-0.4,0.2-0.7,0.3-1.1,0.5c0,0-0.1-0.1-0.1-0.1
			c-0.1-0.1-0.2-0.2-0.3-0.2c0.5-0.3,0.9-0.6,1.3-0.9c0.4-0.3,0.8-0.7,1.2-1C46.8,36.2,47,36.4,47.2,36.5z"/>
		<path class="st28" d="M35.2,32.9c-0.1,0.1-0.1,0.2-0.2,0.3c-0.1,0.5-0.1,1,0.1,1.5c0.2,0.5,0.4,0.9,0.7,1.4
			c0.4,0.6,0.9,1.2,1.6,1.4c-0.4-0.5-0.9-1-1.1-1.7c-0.3-0.6-0.3-1.3-0.1-2c0-0.1,0.1-0.2,0.1-0.4c0-0.2-0.1-0.4-0.3-0.5
			c-0.2-0.1-0.4-0.1-0.6-0.1C35.4,32.9,35.3,32.9,35.2,32.9z"/>
		<path class="st5" d="M32.6,53.7c0.1,0,0.2-0.1,0.3-0.2c-0.3,0.2-0.5,0.5-0.7,0.7c-0.3,0.2-0.7,0.3-1.1,0.4c-0.3-0.4-0.7-0.7-1-1.2
			c0,0,0,0,0,0c-0.1-0.7,0.4-1.4,1-1.7c-0.2,0.3-0.3,0.6-0.2,0.9C31,53.4,31.9,53.9,32.6,53.7z"/>
		<path class="st5" d="M39,52.6C39,52.6,39,52.7,39,52.6c0,0.6,0,1.2,0,1.8c-1.1-0.1-2.2-0.5-3.3-0.8c0-0.2-0.1-0.4-0.3-0.4
			c-0.4,0-0.7,0.1-1.1,0c-0.3-0.1-0.6-0.2-0.9-0.3c0.2-0.4,0.2-0.8,0-1.1c0,0-0.1-0.1-0.1-0.1c0.5,0.1,0.9,0.3,1.4,0.4
			C36.1,52.5,37.5,52.6,39,52.6z"/>
		<path class="st29" d="M47.8,38.8c-0.4-0.2-0.9-0.4-1.3-0.6c0.4-0.5,0.8-1,1.2-1.4c0.5,0.2,0.9,0.3,1.4,0.4
			C48.7,37.7,48.3,38.3,47.8,38.8z"/>
		<path class="st14" d="M48.4,39.1c0.4-0.5,0.8-1,1.1-1.6c0.5,0.4,1,0.7,1.5,1.1c-0.8,0-1.3,0.4-1.8,0.9
			C49,39.4,48.7,39.3,48.4,39.1z"/>
		<path class="st11" d="M55.3,51.6c0.5,1-0.2,2-1.3,2.3C53.4,54,52.7,54,52,54c-1.4,0-2.8-0.1-4.2-0.1c-2.7-0.1-5.4-0.3-8.1-0.1
			c0-0.3,0-0.7,0-1c3.6,0.2,7.1,0.4,10.6-0.2c0.7-0.1,1.4-0.2,1.9-0.7c0,0,0,0,0,0C53.3,51.9,54.4,51.8,55.3,51.6z"/>
		<path class="st14" d="M52.2,39.6c0.2,0.1,0.4,0.2,0.6,0.4c0,0,0.1,0,0.1,0.1c1.3,1.1,1.6,3.3,2,4.8c0.4,1.7,0.7,3.4,0.9,5.1
			c-0.9,0-1.9,0-2.8-0.1c0-0.2,0-0.4,0-0.6c-0.1-1.8-0.4-3.6-0.9-5.3c-0.4-1.4-0.9-2.8-2-3.7C50,40,49.9,40,49.9,39.9
			C50.4,39.3,51.1,39.1,52.2,39.6z"/>
		<path class="st30" d="M55.8,50.1c0,0.2,0,0.4,0.1,0.6c-1,0.1-2,0.3-3.1,0.2c0.1-0.3,0.1-0.6,0.2-0.9
			C53.9,50.2,54.8,50.2,55.8,50.1z"/>
		<path class="st20" d="M55.8,64.7c0.2,0.3,0.4,0.6,0.7,0.9c-0.5,0.3-1.1,0.5-1.7,0.6c0,0-0.1,0-0.1,0c0.2-0.2,0.4-0.4,0.5-0.6
			C55.4,65.3,55.6,65,55.8,64.7z"/>
		<path class="st20" d="M58.7,62.6c-0.1,1.2-0.8,2-1.7,2.6c0,0,0,0,0,0c-0.3-0.4-0.6-0.8-0.9-1.3c0.2-0.4,0.3-0.8,0.4-1.3
			c0.5,0,1,0,1.5,0C58.2,62.7,58.4,62.7,58.7,62.6z"/>
		<path class="st14" d="M57,54.4c-0.1-0.5-0.3-1-0.4-1.4c0-0.1-0.1-0.2-0.1-0.3c-0.1-0.2-0.1-0.4-0.2-0.6c0,0,0,0,0,0
			c-0.1-0.2-0.1-0.5-0.2-0.7c-0.1,0-0.2,0.1-0.3,0.1c0.1,0.2,0.2,0.4,0.2,0.6c0,0,0,0,0,0l0,0l-0.4,1.6c-0.1,0.1-0.2,0.2-0.3,0.3
			c-1.1,0.9-2.6,0.8-3.9,0.8c-1.2,0-2.3,0-3.5-0.1c0.2,0.6,0.3,1.2,0.3,1.8c0.9,0.1,1.8,0.1,2.8,0.2c0.9,0,1.7,0.1,2.6,0
			c0.5-0.1,1.1-0.2,1.6-0.4c0.2-0.1,0.3-0.2,0.4-0.3c0.4,1.5,0.8,2.9,0.9,4.5c0,0.5,0,1.1,0,1.6c0.4,0,0.9,0,1.3,0
			c0.2,0,0.4,0,0.7,0C58.2,59.3,57.6,56.9,57,54.4z"/>
		<path class="st11" d="M39.4,88.4c0.1-0.3,0.1-0.6,0.1-0.9c0.4,0,0.8-0.1,1.2-0.2c-0.1,0.3-0.2,0.6-0.5,0.8
			C39.9,88.4,39.7,88.4,39.4,88.4z"/>
		<path class="st31" d="M43,90.8c-0.9,0.2-1.8,0.3-2.7,0.5c-2.3,0.4-4.6,0.5-6.9,0.9c0.5-0.6,1.3-1,2-1.2c1-0.4,2.1-0.6,2.9-1.2
			c0.3-0.2,0.6-0.5,0.8-0.8c0.5,0.2,1,0.1,1.4-0.2c0.3-0.2,0.7-0.6,0.8-1c0.2,0,0.4,0,0.5,0.2c0.1,0.2-0.1,0.5,0,0.7
			c0,0.1,0.1,0.1,0.2,0.1c0.2,0.2,0.4,0.5,0.5,0.8c0.2,0.3,0.3,0.7,0.4,1.1C42.9,90.7,42.9,90.8,43,90.8z"/>
		<path class="st32" d="M17.9,71.8c0.6-0.2,1.2-0.4,1.8-0.7c1.2,0.1,2.3,0.1,3.5,0.1c0,0.3-0.1,0.7-0.2,0.8c-0.3,0.4-1,0.8-1.5,0.8
			c-0.7,0-1.6-0.1-2.3-0.2C18.6,72.6,18,72.6,17.9,71.8z"/>
		<path class="st2" d="M23.2,71c-1,0-2-0.1-3-0.1c1.2-0.6,2.3-1.3,3.4-2.2c0,0,0.1-0.1,0.1-0.1C23.6,69.4,23.4,70.2,23.2,71
			C23.2,71,23.2,71,23.2,71z"/>
		<path class="st4" d="M31.4,58.3c-2.7,5.6-4.8,11.6-7,17.5c-0.1,0-0.2,0.1-0.2,0.2c-2.1-0.5-4.3-0.9-6.4-1.3
			c-1.6-0.3-4.6-0.4-5.7-1.8c0.1,0,0.2,0,0.3,0c1.6-0.1,3.1-0.4,4.7-0.8c0,0.3,0.1,0.6,0.4,0.8c0.7,0.6,1.9,0.5,2.7,0.6
			c0.9,0.1,2.2,0.5,3-0.3c0.7-0.8,0.7-2.3,0.9-3.3c0.1-0.7,0.3-1.3,0.3-1.9c2.4-2.5,4-5.9,3.7-9.3c0.7-0.2,1.3-0.4,2-0.5
			C30.5,58.1,31,58.1,31.4,58.3z"/>
		<path class="st33" d="M24.5,61.6c-0.5,0.6-1.3,0.9-2,1.3c-1,0.5-1.9,1.1-2.8,1.7c-2.3,1.5-4.3,3.3-6.1,5.4c2.4-3.8,5.9-6.9,10-8.9
			c0.2-0.1,0.4-0.2,0.6-0.2c0.2,0,0.4,0.2,0.4,0.4C24.7,61.4,24.6,61.5,24.5,61.6z"/>
		<path class="st4" d="M50,91c-7,1.5-14,2.7-21.1,3.7c-2.8-5.2-6.1-10.1-10.9-13.5c-0.2-0.1-0.3-0.2-0.5-0.3
			c-1.1-1.6-2.2-3.2-3.3-4.8c0-0.1-0.1-0.1-0.1-0.1c0,0-0.1-0.1-0.1-0.1c-1.6-0.4-2.2-1.7-2.2-3c0.8,1.1,2.6,1.4,3.8,1.6
			c3,0.6,5.9,1.3,8.9,1.8c2,5.5,4.1,11,6.4,16.5c0,0.1,0.1,0.1,0.1,0.1c0,0.1,0,0.2,0.1,0.2c0.5,0,1.1-0.1,1.6-0.1
			c0.3,0,0.5,0,0.8-0.1c2.2,0,4.6-0.5,6.7-0.9c2.5-0.4,5-0.9,7.4-1.5c0.1,0,0.3-0.1,0.3-0.3c0-0.1,0-0.1,0-0.2
			c-0.2-1.5-0.4-3-0.4-4.4c0.5-2.1,1.4-4,2.6-5.8c0.2-0.2,0.3-0.4,0.5-0.6C48.7,82.9,48.5,87.2,50,91z"/>
		<path class="st4" d="M21.4,87.7c-0.6-0.2-1.3-0.3-1.9-0.5c-1.1-0.3-1.9-0.6-2.7-1.3c0-0.1-0.1-0.2-0.3-0.3c-2-0.5-4-1.1-6-1.7
			c-0.8-0.3-1.6-0.5-2.4-0.8c1.1-0.2,2.2-0.5,3.3-1c0.9-0.4,1.9-1.1,2.1-2.2c0.1-0.7-0.2-1.5-0.7-2.1c-0.2-0.2-0.3-0.3-0.5-0.5
			c0.7,0,1.3,0,2,0.1c1.9,2.9,3.9,5.7,5.9,8.5C20.7,86.6,21,87.2,21.4,87.7z"/>
		<path class="st33" d="M8.5,80.6c0.4-0.5,1-0.9,1.5-1.3c0.1,0,0.1-0.1,0.2-0.2c0.1-0.2-0.1-0.4-0.3-0.4C9.5,78.5,9,78.8,8.6,79
			c-0.6,0.4-1.1,0.9-1.5,1.5C7,80.8,6.8,81.1,7,81.4c0.2,0.3,0.7,0.3,0.9,0.1C8.2,81.2,8.3,80.9,8.5,80.6z"/>
		<path class="st4" d="M56.7,72.1c-3.6,1.1-6.8,3.4-8.6,7c-1.6,3.2-2,7.4-0.8,10.8c-1.2,0.3-2.5,0.6-3.7,0.8c0,0,0-0.1,0-0.1
			c0-0.8-0.5-1.7-1.2-2.1c0,0,0-0.1,0-0.1c0-0.2,0-0.5-0.2-0.7c-0.1-0.1-0.3-0.3-0.5-0.3c0.1-0.1,0.2-0.2,0.3-0.3
			c0.3-0.3,0.6-0.7,0.9-1c0.7-0.8,1.2-1.7,1.7-2.6c1-2,1.6-4.2,1.1-6.4c-0.3-1.4-1.1-2.8-2.3-3.6c-0.5-0.8-1-1.5-1.4-2.3
			c0.3,0,0.7-0.1,1-0.1c2.4,0.5,5,0.5,7.4,0.7C52.6,71.9,54.6,72,56.7,72.1z"/>
		<path class="st4" d="M79.5,82.9L79.5,82.9c-9.6,3.2-19.4,5.9-29.3,8.1c-0.8-2.2-1.1-4.6-0.8-6.9c0.3,0.7,0.9,1.2,1.5,1.6
			c1,0.5,2.2,0.6,3.3,0.5c-0.5,0.1-1,0.3-1.5,0.4c-0.4,0.1-0.2,0.8,0.2,0.7c5-1.3,9.9-2.5,15-3.4c0.5-0.1,0.3-0.8-0.2-0.7
			c-2.3,0.4-4.6,0.9-6.9,1.4c1.7-0.7,3.2-1.7,4.7-2.8c0.6-0.1,1.2-0.2,1.8-0.3c0.5-0.1,0.3-0.8-0.2-0.7c-0.1,0-0.3,0.1-0.4,0.1
			c1.6-1.5,2.9-3.3,3.4-5.3c0.2-0.7,0.2-1.5,0.2-2.2c0.6,0.2,1.2,0.4,1.8,0.6c0.8,0.3,1.6,0.6,2.5,1.1c0,0.1,0.1,0.1,0.2,0.1
			C77.8,76.5,80.5,79.1,79.5,82.9z"/>
		<path class="st33" d="M61.6,74.2c0.1,0.4-0.2,0.7-0.6,0.9c-0.3,0.1-0.7,0.1-1.1,0.2c-1.6,0.1-3.1,0.8-4.3,1.7
			c-1.3,0.9-2.4,2-3.5,3.2c0.2-0.7,0.4-1.3,0.8-1.9c0.4-0.6,0.8-1.3,1.3-1.8c0.8-0.8,2-1.6,3-2.2c1-0.6,2-0.7,3.1-0.7
			C60.9,73.5,61.5,73.7,61.6,74.2z"/>
		<path class="st34" d="M9.2,87.2c-1.3-0.7-2.6-1.3-4-1.8c0.4-0.6,0.8-1.2,1.4-1.7c0,0,0,0,0,0c1.5,0.7,3.1,1,4.6,1.5
			C10.5,85.6,9.7,86.4,9.2,87.2z"/>
		<path class="st35" d="M12.2,85.5c1.2,0.4,2.4,0.8,3.6,0.9c-0.3,0.6-0.5,1.2-0.8,1.8c-0.8-0.2-1.7-0.6-2.4,0.1
			c-0.2,0.2-0.4,0.5-0.6,0.8c-0.7-0.5-1.5-1.1-2.3-1.5C10.4,86.7,11.3,86.1,12.2,85.5z"/>
		<path class="st35" d="M18,94.1c-0.2,0.2-0.3,0.3-0.5,0.5c-0.4-0.6-0.9-1.2-1.4-1.8c1.3-0.8,2.3-2.8,2.9-4.2
			C20,90.4,19.5,92.6,18,94.1z"/>
		<path class="st34" d="M20.4,99.7c-0.7-1.6-1.5-3.2-2.5-4.6c0.4-0.3,0.7-0.7,1-1.1c1.1-1.4,1.7-3.8,0.8-5.5
			c0.5,0.2,0.9,0.3,1.4,0.5c0.4,0.1,0.8,0.2,1.3,0.2c0.6,0.9,1.2,1.7,1.8,2.6C24.5,95.1,23.3,98,20.4,99.7z"/>
		<path class="st36" d="M14.7,88.8c-0.3,0.6-0.5,1.2-0.8,1.8c-0.4-0.4-0.8-0.8-1.3-1.2c0-0.1,0.1-0.1,0.1-0.2
			C13.3,88.4,14,88.6,14.7,88.8z"/>
		<path class="st36" d="M18.5,87.9c-0.6,1-1.1,2-1.6,3c-0.3,0.5-0.6,1-1.1,1.2c0,0,0,0,0,0c-0.3-0.5-0.6-1-1.1-1.2
			c0.8-1.4,1.3-2.9,1.9-4.4c0.3,0.5,0.9,0.9,1.5,1.1C18.2,87.7,18.3,87.8,18.5,87.9C18.5,87.8,18.5,87.9,18.5,87.9
			C18.5,87.9,18.5,87.9,18.5,87.9z"/>
		<path class="st34" d="M63.3,94.1c0.1,0.2,0.2,0.3,0.3,0.4c-1.7,0.4-3.5,1-5.1,1.6c-0.2-0.4-0.3-0.9-0.4-1.3c1,0.1,2.1-0.2,3.1-0.3
			C61.9,94.3,62.6,94.3,63.3,94.1z"/>
		<path class="st34" d="M64,94.1c0.6,0,1.3,0,1.9-0.1c-0.5,0.1-1,0.2-1.5,0.3C64.4,94.3,64.2,94.2,64,94.1z"/>
		<path class="st35" d="M71.7,89.5c0.4,1.3,0.2,2.6-0.6,3.7c-1,0.1-2.1,0.3-3.1,0.4c1-0.3,1.8-0.9,2.1-1.9c0.5-1.5,0-3.4-1.2-4.3
			c0.2,0,0.5-0.1,0.7-0.2C70.6,87.7,71.3,88.4,71.7,89.5z"/>
		<path class="st34" d="M77.3,93c-1.3,0-2.5,0-3.8,0c-0.5,0-1.1,0.1-1.6,0.1c1-2,0.6-5-1.3-6.2c0.4-0.2,0.8-0.3,1.3-0.5
			c1-0.3,2-0.5,3-0.9C77.2,87.3,77.7,90.2,77.3,93z"/>
		<path class="st35" d="M67.7,89.4c-0.8,0.2-1.7,0.5-2.5,0.7c0.1-0.7,0.8-1.3,1.6-1.3c0.2,0,0.3,0,0.4,0.1
			C67.4,89,67.5,89.2,67.7,89.4z"/>
		<path class="st36" d="M69.3,88.9c-0.3,0.1-0.6,0.2-0.9,0.3c-0.3-0.5-0.9-0.9-1.5-1c-1.3-0.1-2.4,0.9-2.4,2.1
			c-3.5,1-7.1,2.1-10.6,3.1c-1.8,0-3.6,0-5.4,0c-2,0-4-0.1-6,0c8.5-1.5,17-3.5,25.3-5.9C68.4,87.6,68.9,88.2,69.3,88.9z"/>
		<path class="st15" d="M22.9,67.8c0,0.1,0,0.2,0,0.3c-0.1,0.2-0.4,0.4-0.6,0.5c-0.9,0.5-1.9,1.1-2.7,1.7c0.7-0.9,1.6-1.6,2.5-2.2
			c0.2-0.1,0.4-0.3,0.6-0.3C22.7,67.7,22.8,67.7,22.9,67.8z"/>
		<path class="st2" d="M24.1,55c0,0.2,0,0.3,0.1,0.5c-0.8-0.6-1-1.5-0.9-2.4c0.3,0.1,0.5,0.2,0.8,0.2C24,53.9,24,54.4,24.1,55z"/>
		<path class="st2" d="M29.6,48.5c0.3,0,0.6,0,0.9,0c0,0.5,0,1,0.1,1.5c-0.3,0.2-0.6,0.4-0.9,0.7C29.8,49.9,29.8,49.1,29.6,48.5z"/>
		<path class="st4" d="M34,53.9c-0.4,0.6-0.7,1.2-1.1,1.8c-0.4,0.6-1,1.2-1.3,1.8c0,0,0,0,0,0c-0.4-0.2-0.9-0.2-1.4-0.1
			c-0.7,0.1-1.4,0.2-2.1,0.4c0.3-0.7-0.8-1.3-1.5-1.4c-0.5-0.1-1.2-0.2-1.5-0.7c-0.2-0.2-0.2-0.8-0.3-1.2c0-0.4,0-0.8,0-1.2
			c1.5,0.1,3.1-0.3,4.2-1.5c0,0,0.1-0.1,0.1-0.1c0,0.1,0,0.3,0,0.4c-0.2,0.1-0.3,0.3-0.5,0.5c-0.2,0.3-0.3,0.5-0.3,0.9
			c0,0,0,0.1,0,0.1c0,1,1.2,1.4,1.2,2.4c0,0.1,0,0.1,0.1,0.1c-0.1,0.3-0.1,0.5,0.1,0.8c0.2,0.3,0.6,0.4,1,0.3
			c0.3-0.1,0.6-0.5,0.5-0.8c0-0.2-0.2-0.6-0.5-0.7c-0.1-0.3-0.2-0.7-0.3-1c0.1,0.1,0.3,0.2,0.4,0.2c0,0,0.1,0,0.1,0
			c0.6,0.2,1.1,0,1.6-0.3c0.3-0.2,0.8-0.7,0.9-1.1C33.6,53.7,33.8,53.8,34,53.9z"/>
		<path class="st34" d="M63.5,68.6c0.3,0.1,0.5,0.1,0.8,0.2c-0.3,0-0.6,0.1-0.8,0.2c-1,0.4-1.9,1.2-2.1,2.3
			c-0.9,0.1-1.7,0.2-2.5,0.3c-2.6-0.3-5.2-0.4-7.8-0.5c-1.8-0.1-3.6-0.3-5.4-0.4c0.7-0.1,1.4-0.2,2.1-0.2c2.7-0.3,5.3-0.3,8-0.6
			c1.7-0.2,3.5-0.5,4.9-1.6C61.6,68.3,62.6,68.4,63.5,68.6z"/>
		<path class="st34" d="M66.1,71.4c-0.1,0-0.2,0-0.4,0c-0.4-0.1-0.9-0.1-1.3-0.1c0.5-0.4,1-0.5,1.6-0.6c0,0.2,0.1,0.4,0.1,0.6
			C66.1,71.3,66.1,71.4,66.1,71.4z"/>
		<path class="st14" d="M94.8,52.4c-0.4-0.6-1.2-1.1-1.9-1.4c-0.7-0.3-1.4-0.5-2.2-0.4c-3-0.2-6.2,0-9.2,0c-3.2,0-6.5,0.2-9.8,0.1
			c0-0.3,0-0.7,0-1c0.3,0.2,0.7,0.2,1.1,0.2c6.5,0.2,13,0.1,19.5-0.2c0.6,0,1.3-0.1,1.8-0.4c0.4-0.3,0.7-0.7,0.8-1.2
			c0.2,0.5,0.2,1.1,0.3,1.6C95.3,50.5,95.5,51.9,94.8,52.4z"/>
		<path class="st14" d="M60.9,49.8L60.9,49.8c-0.1,0.1-0.4,0.1-0.6,0.2C60.5,49.9,60.7,49.8,60.9,49.8z"/>
		<path class="st14" d="M94.2,55.4c-0.5-0.5-1.1-1-1.6-1.5c-0.6-0.5-1.2-1.1-1.9-1.4c-0.9-0.4-1.9-0.5-2.8-0.5
			c-5.4-0.3-10.7-0.3-16.1,0c0-0.3,0-0.6,0-0.9c3.2-0.1,6.5,0.1,9.8,0.1c3.2,0,6.5,0.2,9.7,0c0.5,0.2,1.1,0.3,1.5,0.6
			c0.5,0.3,0.9,0.7,1.4,1C94.1,53.6,94.1,54.5,94.2,55.4z"/>
		<path class="st26" d="M74.1,48.1c-0.1,0.1,0,0.4,0.1,0.5c0.1,0.1,0.3,0.1,0.5,0.1c4.4,0.2,8.9,0.1,13.3-0.2c0.5,0,1-0.1,1.4-0.5
			c-0.1-0.3-0.4-0.4-0.7-0.4c-4.7,0.1-9.5,0.2-14.2,0.3C74.3,48,74.2,48,74.1,48.1z"/>
		<path class="st37" d="M36.3,24.9c1.9,0.5,3.9,1.1,5.8,1.6c-1,0.1-2-0.1-3-0.4c-0.2-0.1-0.4,0.2-0.3,0.4c0.2,0.2,0.3,0.4,0.5,0.6
			c-2-0.3-3.8-1.1-5.3-2.5c-0.1-0.1-0.3,0.1-0.2,0.2c0,0,0,0,0,0c0,0,0,0,0,0.1c-0.1,0.8,0,1.7,0,2.5c-0.2,0-0.5-0.1-0.6-0.2
			c-0.2-0.6-0.2-1.2-0.1-1.8c0.1-0.4,0.2-0.9,0.4-1.3C34.5,24.5,35.4,24.7,36.3,24.9z"/>
		<path class="st37" d="M50.7,35.9c0.1,0.3,0.3,0.5,0.5,0.7c-1.6,0.3-3.1-0.1-4.4-1c0,0-0.1-0.1-0.1-0.1c0,0,0,0,0,0
			c0.3-0.3,0.5-0.6,0.7-1c1.1-0.2,2.2-0.6,3.2-1.1c0.5,0.5,1.1,0.8,1.8,1.1c-0.6,0.2-1.3,0.3-2,0.2c0.5,0.3,1.1,0.6,1.6,1
			c-0.3-0.1-0.7-0.1-1-0.1C50.7,35.4,50.6,35.7,50.7,35.9z"/>
	</g>
</g>
</svg>
