<svg xmlns="http://www.w3.org/2000/svg" xmlns:xlink="http://www.w3.org/1999/xlink" viewBox="0 0 361.82 366.8"><defs><style>.cls-1{fill:none;}.cls-2{isolation:isolate;}.cls-3{clip-path:url(#clip-path);}.cls-4{fill:#efbfa5;}.cls-5{fill:#dadada;}.cls-5,.cls-9{mix-blend-mode:multiply;}.cls-6{fill:#432918;}.cls-7{fill:#fff;}.cls-8{fill:#be1622;}.cls-9{fill:#c6c6c6;}.cls-10{fill:#0d3953;}.cls-11{fill:#082a3f;}.cls-12{fill:#240800;}.cls-13{fill:#3a160e;}</style><clipPath id="clip-path" transform="translate(-31.69 -58.4)"><path class="cls-1" d="M425.2,212.6C425.2,330,330,425.2,212.6,425.2S0,330,0,212.6,95.19,0,212.6,0,425.2,95.19,425.2,212.6Z"/></clipPath></defs><g class="cls-2"><g id="Capa_1" data-name="Capa 1"><g class="cls-3"><rect class="cls-4" x="146.49" y="221.87" width="68.59" height="36.08"/><path class="cls-5" d="M197.37,307.93a65.36,65.36,0,0,0,30.24-8.49,54.79,54.79,0,0,0,16.61-14.26c.81-1.09,1.72-2.32,2.55-3.63v-1.28H178.18v27A156,156,0,0,0,197.37,307.93Z" transform="translate(-31.69 -58.4)"/><path class="cls-4" d="M212.5,77.71h-.05C168.62,79,135.17,97,135.33,159.05c.1,36.81,3.46,47.68,14.18,89.68,7.42,29.07,46.91,44.4,62,45.4l1-.09,1,.09c15.06-1,54.55-16.33,62-45.4,10.73-42,14.08-52.87,14.18-89.68C289.78,97,256.33,79,212.5,77.71Z" transform="translate(-31.69 -58.4)"/><path class="cls-4" d="M281.23,184.6l-4.79,36.66c18.81,8.28,21.76-34.87,21.76-34.87C293.85,175.64,281.23,184.6,281.23,184.6Z" transform="translate(-31.69 -58.4)"/><path class="cls-4" d="M124.45,186.39s2.94,43.15,21.76,34.87l-4.79-36.66S128.8,175.64,124.45,186.39Z" transform="translate(-31.69 -58.4)"/><path class="cls-6" d="M277.33,135.73" transform="translate(-31.69 -58.4)"/><path class="cls-4" d="M247.37,316.35,340,340.46s31.61,4.85,39.67,33.25l13.83,51.49H31.69l13.83-51.49c8.06-28.4,39.68-33.25,39.68-33.25l92.36-24.11Z" transform="translate(-31.69 -58.4)"/><path class="cls-7" d="M31.69,425.2l13.83-51.49c8.06-28.4,39.68-33.25,39.68-33.25l92.36-24.11h69.81L340,340.46s31.61,4.85,39.67,33.25l13.83,51.49" transform="translate(-31.69 -58.4)"/><polygon class="cls-8" points="186.87 257.95 181.01 257.95 180.81 257.95 174.95 257.95 157.99 284.69 173.16 301.77 180.81 301.77 181.01 301.77 188.66 301.77 203.84 284.69 186.87 257.95"/><path class="cls-9" d="M221,356.92c-9.93-10.46-14.11-26.29-11.55-40.57h-2.84l-17,26.74,15.17,17.08h15.5l1.87-2.1C221.81,357.69,221.41,357.3,221,356.92Z" transform="translate(-31.69 -58.4)"/><polygon class="cls-9" points="215.19 239.91 180.65 257.95 203.42 292.24 244.75 267.36 215.19 239.91"/><polygon class="cls-7" points="215.19 239.91 180.65 257.95 203.83 287.68 242.48 265.3 215.19 239.91"/><polygon class="cls-9" points="146.31 239.91 180.65 257.95 158.09 292.24 116.76 267.36 146.31 239.91"/><polygon class="cls-7" points="146.31 239.91 180.85 257.95 157.68 287.68 119.02 265.3 146.31 239.91"/><path class="cls-10" d="M151.15,323.29,85.2,340.46s-31.62,4.85-39.68,33.25L31.69,425.2H393.51l-13.83-51.49c-8.06-28.4-39.67-33.25-39.67-33.25l-69.08-19.81-58.59,102Z" transform="translate(-31.69 -58.4)"/><polygon class="cls-8" points="172.9 301.77 164.64 338.24 180.65 364.24 195.59 338.23 188.4 301.77 172.9 301.77"/><polygon class="cls-11" points="119.46 264.89 88.22 273.03 105.84 279.86 94.96 292.24 157.99 366.8 182.47 366.8 119.46 264.89"/><polygon class="cls-11" points="239.24 262.25 273.62 272.11 256 279.86 266.87 292.24 203.86 366.8 179.37 366.8 239.24 262.25"/><path class="cls-12" d="M142.51,190l3.87,46.52c-20.34-54.73-8.59-126.32-8.59-126.32,6.49-26.43,12.47-30.92,22.94-36.41s6.49-4.49,23-8.48,0,0,22.26-5.49,40.83,7,40.83,7c15.21,9,24.69,13.48,24.69,13.48C304.87,106.18,289.62,178,289.62,178c0,18.95-12.29,63.36-12.29,63.36l4.6-60.26c0-83.19-42.46-75.83-42.46-75.83-22.38,4.4-49.79-.09-49.79-.09s-50.94-15.62-47.17,83.71" transform="translate(-31.69 -58.4)"/><path class="cls-12" d="M145.2,222.32s4.83,37.18,42,53.44c0,0,8.87,5.52,23.88,4.51v13.86s-17.58.31-42.83-17.38C168.22,276.75,142.51,261.29,145.2,222.32Z" transform="translate(-31.69 -58.4)"/><path class="cls-12" d="M279.5,222.32s-5.08,37.18-44.15,53.44c0,0-9.33,5.52-25.12,4.51v13.86s18.5.31,45.06-17.38C255.29,276.75,282.33,261.29,279.5,222.32Z" transform="translate(-31.69 -58.4)"/><path class="cls-12" d="M142.51,224.56s16.75,37.4,37.88,33.66c0,0,18.75-11.91,30.66-5.22,0,0,18-6.69,32.2,5.33,0,0,20.36-3.68,35.15-31,0,0-4.23,53-66.06,57.45C212.34,284.74,153.75,284.74,142.51,224.56Z" transform="translate(-31.69 -58.4)"/><path class="cls-4" d="M212.75,269c12.51-1.12,19.76-6.93,19.76-6.93-13-5.87-18.78-3.21-20-2.43-1.25-.78-7-3.44-20,2.43,0,0,7.26,5.81,19.77,6.93v0l.27,0,.28,0Z" transform="translate(-31.69 -58.4)"/><path class="cls-13" d="M146.81,108.13c.23,1.05-.39,1.66.56,2.2,1-4.31,1.43-8.54,3.33-12.62,2.63,1.77,8.67,11.94,8.19,1.55,2.82-.27,5.91,2.86,8.12,2.17,3.36-1.07,3.63-6.33,6-9.12,5.29,3.81,6,6.85,11.25,3.88,1.85-1,1.21-4.64,3.73-5.32,3-.81,4.43,2.63,6.75,2.92,1.8.21,8.77-.73,10.31-1.64,2.67-1.57,4.76-10.32,9.1-3.57,6.07-4.49,7.1,5.46,12.65,6,0-.89.16-1.9.22-2.79,3.45,2.43,4.13-1,6.59-.74,4.6.46,5.5,2.77,9.17,4.25,3.1,1.24,11.86,3.76,15.42,3,.1-.45.18-.9.25-1.35,4.57,4.18,8.09,10.16,13.4,13.55.49-.44.41-1.12.66-1.37,3,4.1,4.08,9.15,8.86,11.66.35-9.77-13.1-21.61-17.83-27.72.38.71.59,1.54,1,2.28a69.47,69.47,0,0,0-18.09-12.6c.26,1,.2,2.46.52,3.49-2-4.65-16.84-8.76-21.47-10.18.12,1.09-.35,2.53-.23,3.64-.28-.21-4-2.68-4.38-2.43,1.36-.86-5.78,2.78-3,2.44,0,0-1.79,1.94-3,2.14s-5.24-3.14-6.67-3.53c0,.9-.22,1.9-.22,2.8-1.05-.78-3.79-1.51-5-2.82.05,1.11-.35,2.49-.28,3.6-1.93-2.06-4.82-4.42-8-5.1.33,1.74-.12,3.15.74,5-1.53-3.06-3.81-4.43-6-2.1-3-2.94-9.65-7.64-10.45-.78-.9.05-1.31-.68-2.15-.57-2.83,3.71-6.43,1-9.77,0,.39,4,0,9.13-4.63,7.46-.29.88-.51,1.88-.83,2.84a12.07,12.07,0,0,0-2-1.19c-2.54,2.51-7,2.4-10.47,4.37.16,5.9-1.6,10.88-1.62,17.08" transform="translate(-31.69 -58.4)"/></g></g></g></svg>