<svg xmlns="http://www.w3.org/2000/svg" xmlns:xlink="http://www.w3.org/1999/xlink" viewBox="0 0 296.73 342.8"><defs><style>.cls-1{fill:none;}.cls-2{isolation:isolate;}.cls-3{clip-path:url(#clip-path);}.cls-4{fill:#210;}.cls-5{fill:#efbfa5;}.cls-6{fill:#dadada;mix-blend-mode:multiply;}.cls-7{fill:#9d2f34;}.cls-8{fill:#392212;}.cls-9{fill:#432918;}.cls-10{fill:#271504;}.cls-11{fill:#402716;}</style><clipPath id="clip-path" transform="translate(-64.24 -69.72)"><path class="cls-1" d="M412.52,212.6C412.52,323,323,412.52,212.6,412.52S12.68,323,12.68,212.6,102.19,12.68,212.6,12.68,412.52,102.19,412.52,212.6Z"/></clipPath></defs><g class="cls-2"><g id="Capa_1" data-name="Capa 1"><g class="cls-3"><rect class="cls-4" x="169.95" y="194.39" width="43.34" height="58.15"/><rect class="cls-5" x="118.2" y="204.38" width="61.58" height="35.59"/><path class="cls-6" d="M199.66,301.38A54.92,54.92,0,0,0,226.82,293a51,51,0,0,0,14.91-14.07c.73-1.07,1.54-2.29,2.29-3.58V274.1H182.43v26.62A127.42,127.42,0,0,0,199.66,301.38Z" transform="translate(-64.24 -69.72)"/><path class="cls-5" d="M289.5,177.22c0-57-34.19-89.84-76.46-90.11h-.89c-42.26.27-76.45,33.06-76.45,90.11,0,74,53.27,117.14,76.82,117.33h.16C236.23,294.36,289.5,251.21,289.5,177.22Z" transform="translate(-64.24 -69.72)"/><path class="cls-5" d="M281.92,198.34,277.53,232c17.25,7.6,19.94-32,19.94-32C293.49,190.13,281.92,198.34,281.92,198.34Z" transform="translate(-64.24 -69.72)"/><path class="cls-5" d="M129.67,200s2.7,39.57,20,32l-4.39-33.62S133.66,190.13,129.67,200Z" transform="translate(-64.24 -69.72)"/><path class="cls-5" d="M182.19,307l-74.08,22.91s-25.92,4.6-32.54,31.59L64.24,410.39H361l-11.34-48.92c-6.61-27-32.54-31.59-32.54-31.59L243,307Z" transform="translate(-64.24 -69.72)"/><path class="cls-7" d="M361,410.39l-11.34-48.92c-6.61-27-32.54-31.59-32.54-31.59l-31.53-9.75s13.34,33.68-48.58,58.48c0,0-18.17,5.52-23.91,19.08l-.54,1.24-.38-1.24c-5.75-13.56-23.91-19.08-23.91-19.08-61.91-24.8-48.59-58.48-48.59-58.48l-31.53,9.75s-25.92,4.6-32.54,31.59L64.24,410.39H361Z" transform="translate(-64.24 -69.72)"/><path class="cls-8" d="M282.59,169.12c.47,6.08,3.43,11.93,4.05,18,.78,7.66-1.77,14.42-4.91,21-7,14.57-10.75,33.48-8.07,49.6,1.26,7.62,4.67,13.45,9.6,19,4.6,5.17,10.21,9.2,12.13,16,5.1,18.08-9.5,21.84-18.22,33.81-7.71,10.6-6.32,32.5-2,44.38,6.94,19.18,33.6,26.48,51.88,27.61,6.87.42,14.5,1.16,19-4.72,3.61-4.75,4.4-12.87,2-18.19-2.2-4.89-6.07-5.64-10.08-8.74-4.39-3.38-8-8.41-11.45-12.81-8.47-10.8-9.74-25.05-.65-36.3,8.21-10.16,15.88-16.82,14.63-31.1-1.52-17.34-20.87-25.89-31.62-37.53-10.3-11.13-1.3-21.31,3.88-32.29,4-8.36,7.1-15.87,6.23-25.57-1.75-19.3-16.17-28-26.26-43" transform="translate(-64.24 -69.72)"/><path class="cls-9" d="M260.37,169.58c.12,6.37,2.86,12.66,3.14,19,.35,8.05-2.73,14.94-6.41,21.63-8.13,14.79-13.25,34.3-11.44,51.29.86,8,4.06,14.33,8.87,20.42,4.48,5.68,10.1,10.22,11.69,17.46,4.23,19.17-11.25,22.22-21.06,34.18-8.7,10.6-8.58,33.54-4.82,46.21,6.08,20.44,33.47,29.68,52.48,32,7.15.85,15.07,2.09,20.09-3.77,4.06-4.74,5.37-13.17,3.19-18.87-2-5.23-6-6.26-10-9.73-4.39-3.8-7.85-9.27-11.18-14.08-8.18-11.79-8.65-26.74,1.52-37.92,9.19-10.11,17.6-16.59,17.17-31.58-.54-18.2-20.21-28.29-30.74-41.09-10.07-12.25-.05-22.33,6-33.47,4.63-8.49,5.73-16.41,8-26.32,5.23-22.31-.84-55.45-10.46-71.72" transform="translate(-64.24 -69.72)"/><path class="cls-10" d="M165,126.93s59-30.12,80.87,30.14C245.88,157.07,254.71,65,165,126.93Z" transform="translate(-64.24 -69.72)"/><path class="cls-11" d="M173.45,92.75s-9.19,24.79-5,31.82c0,0-29,11.81-31.7,70.58,0,0-2.64-.7-6,2.82C130.75,198,108.73,114.85,173.45,92.75Z" transform="translate(-64.24 -69.72)"/><path class="cls-9" d="M165,126.93s71.49-52.38,79,23.75c0,0,11,48.64,45.48,44.45,0,0,21.14-48.51-19.67-99.16,0,0-28.84-36.58-71-23.38C198.78,72.59,157.27,87.1,165,126.93Z" transform="translate(-64.24 -69.72)"/><path class="cls-4" d="M139.64,230.56s5,54.2,42.79,70.16v-20s-25.87-23.17-35.61-47.91C146.82,232.81,142.12,233.48,139.64,230.56Z" transform="translate(-64.24 -69.72)"/></g></g></g></svg>