<?xml version="1.0" standalone="no"?>
<!DOCTYPE svg PUBLIC "-//W3C//DTD SVG 20010904//EN"
 "http://www.w3.org/TR/2001/REC-SVG-20010904/DTD/svg10.dtd">
<svg version="1.0" xmlns="http://www.w3.org/2000/svg"
 width="864.000000pt" height="864.000000pt" viewBox="0 0 864.000000 864.000000"
 preserveAspectRatio="xMidYMid meet">
<metadata>
Created by potrace 1.14, written by Peter Selinger 2001-2017
</metadata>
<g transform="translate(0.000000,864.000000) scale(0.100000,-0.100000)"
fill="#000000" stroke="none">
<path d="M3732 7409 c-207 -25 -334 -69 -487 -171 -72 -48 -199 -175 -240
-240 -31 -50 -24 -46 -150 -73 -71 -14 -225 -66 -225 -75 0 -11 87 -40 94 -32
3 3 6 1 6 -5 0 -8 48 -25 63 -22 1 0 15 -6 31 -15 16 -8 33 -13 38 -10 4 3 13
2 19 -1 6 -4 -10 -21 -38 -40 -63 -44 -109 -99 -118 -144 -6 -34 12 -34 78 3
45 25 66 32 77 26 13 -8 13 -11 1 -19 -7 -5 -9 -10 -3 -12 5 -2 12 -23 15 -47
2 -23 8 -46 12 -50 5 -4 5 1 2 11 -4 11 -3 16 3 12 6 -3 10 -13 10 -21 0 -8 5
-14 11 -14 7 0 19 -8 28 -18 9 -10 32 -23 51 -28 24 -7 35 -16 36 -29 2 -21 4
-33 24 -123 7 -30 13 -59 14 -65 2 -7 6 -24 10 -39 7 -23 3 -32 -29 -59 -20
-18 -43 -46 -52 -63 -18 -35 -27 -132 -13 -141 6 -4 10 -15 10 -26 0 -10 5
-19 10 -19 6 0 10 -4 10 -10 0 -9 13 -28 45 -64 16 -18 67 -79 109 -130 112
-135 140 -150 281 -147 65 1 79 3 140 20 22 6 43 11 47 11 5 0 33 11 64 25 31
14 60 25 64 25 14 0 77 -66 84 -88 5 -15 1 -30 -12 -46 -34 -44 -12 -224 30
-247 16 -9 25 -6 47 15 15 14 30 26 32 26 3 0 7 -21 8 -47 2 -50 4 -73 16
-163 8 -64 11 -84 18 -125 7 -41 21 -137 21 -154 1 -16 -10 -19 -124 -26 -212
-13 -321 -25 -372 -41 -57 -17 -60 -16 -61 34 0 26 -7 28 -63 17 -16 -3 -45
-8 -64 -11 -19 -3 -54 -12 -77 -20 -40 -14 -73 -11 -73 6 0 11 -99 59 -136 66
-16 3 -47 7 -69 9 -22 2 -44 4 -49 4 -4 1 -5 11 -2 24 4 12 9 31 11 42 3 11 8
34 12 50 4 17 7 32 8 35 1 3 9 40 19 83 10 42 21 77 25 77 4 0 20 -13 36 -30
15 -16 32 -27 36 -24 4 2 10 0 13 -5 10 -15 65 5 86 31 17 20 29 58 46 138 2
14 7 71 9 128 l4 103 -27 10 c-15 6 -37 11 -50 11 -15 0 -27 9 -33 25 -9 24
-43 43 -69 37 -8 -1 -20 -3 -26 -3 -46 -3 -124 -145 -128 -231 -1 -8 -20 -21
-44 -30 -56 -21 -85 -47 -79 -70 3 -11 1 -20 -4 -22 -8 -3 -20 -211 -20 -340
0 -10 -3 -18 -7 -19 -4 0 -34 -2 -67 -4 -33 -2 -78 -7 -100 -10 -22 -3 -56 -8
-75 -11 -19 -2 -53 -10 -75 -15 -22 -6 -41 -11 -42 -10 -2 0 -22 -7 -45 -15
-24 -9 -52 -17 -62 -20 -18 -3 -225 -101 -235 -110 -3 -3 3 -12 12 -21 10 -10
33 -16 61 -17 26 0 46 -1 46 -2 0 -1 -7 -21 -15 -45 -59 -166 -27 -323 80
-393 22 -14 57 -37 77 -52 20 -14 54 -28 75 -30 82 -9 92 -11 107 -23 14 -11
14 -16 1 -40 -10 -20 -33 -35 -87 -55 -93 -36 -322 -150 -412 -205 -86 -53
-216 -141 -234 -158 -8 -7 -30 -26 -50 -41 -76 -58 -272 -248 -272 -264 0 -5
-5 -8 -10 -8 -13 0 -121 -68 -135 -85 -5 -6 -39 -34 -75 -62 -103 -81 -152
-141 -165 -203 -2 -8 -4 -16 -5 -17 -2 -2 -4 -7 -5 -13 -1 -5 -3 -11 -5 -12
-7 -8 -6 -129 1 -134 5 -3 9 -12 9 -20 0 -48 95 -129 162 -138 27 -4 57 -14
78 -27 8 -5 39 -21 68 -35 61 -32 67 -47 15 -37 -191 34 -446 -56 -574 -202
-37 -42 -80 -105 -72 -105 3 0 0 -7 -7 -15 -7 -9 -13 -38 -14 -65 -1 -41 4
-54 29 -80 17 -18 40 -36 53 -41 22 -9 31 -29 12 -29 -6 0 -37 -27 -69 -59
-82 -85 -149 -230 -167 -363 -9 -69 -10 -293 -1 -338 4 -19 10 -48 13 -65 27
-145 100 -283 208 -390 52 -52 89 -79 203 -152 17 -11 17 -11 -2 -11 -95 2
-286 -30 -292 -49 -9 -25 72 -37 467 -68 216 -17 856 -39 1485 -52 383 -7
2415 -10 2450 -3 16 3 51 3 77 0 27 -4 48 -4 48 -1 0 3 93 7 208 7 279 2 815
16 1102 29 251 11 304 14 525 30 118 9 229 22 260 30 6 1 25 6 43 10 17 4 32
11 32 16 0 8 -32 20 -65 25 -11 1 -38 5 -60 9 -22 3 -60 8 -85 10 -25 2 -72 6
-105 9 -33 4 -98 9 -145 12 -47 2 -116 7 -155 9 -117 7 -375 18 -462 19 -46 0
-83 4 -83 7 0 3 19 20 43 37 106 77 212 220 244 327 25 84 42 162 38 172 -2 7
-1 13 4 13 9 0 6 273 -4 315 -4 17 -8 35 -9 40 -14 62 -22 85 -47 134 -32 63
-74 111 -119 138 -16 9 -30 20 -30 24 0 4 48 22 108 42 185 60 272 97 273 115
0 9 3 26 5 37 7 28 7 145 1 175 -12 58 -20 86 -30 98 -5 6 -7 12 -3 12 20 0
-75 152 -137 220 -26 28 -31 41 -27 65 8 40 -8 102 -36 144 -25 37 -101 94
-115 86 -4 -3 -10 -1 -14 5 -3 5 -24 10 -46 10 -21 0 -39 4 -39 9 0 10 -32 24
-62 27 -10 1 -21 2 -25 3 -4 0 -88 3 -188 5 -99 2 -189 6 -200 9 -11 3 -32 8
-47 12 -26 7 -32 18 -30 55 0 8 -4 22 -9 32 -8 16 -5 18 25 18 47 0 138 20
155 33 9 8 297 12 980 14 531 1 972 3 979 4 35 6 63 99 42 139 -6 11 -20 20
-30 20 -22 0 -26 10 -10 26 10 10 17 32 26 89 3 17 6 266 7 555 l2 525 26 9
c32 11 58 53 65 103 3 24 13 45 30 58 53 43 35 163 -29 193 -16 8 -37 33 -51
60 -30 59 -50 77 -101 91 -57 15 -242 25 -440 23 -222 -1 -1053 -2 -1130 0
-76 2 -186 -9 -218 -21 -36 -14 -68 -65 -74 -119 -7 -60 -7 -1425 0 -1515 3
-37 10 -74 17 -82 11 -13 7 -15 -23 -15 -34 0 -35 1 -30 33 5 36 10 1473 5
1539 -4 49 -28 73 -81 81 -38 6 -71 -19 -72 -55 0 -13 -2 -32 -5 -43 -2 -11
-3 -85 -3 -165 3 -502 -1 -1326 -6 -1349 -7 -34 -39 -64 -85 -79 -31 -11 -35
-10 -76 28 -25 22 -56 46 -72 52 -50 20 -179 43 -241 43 -33 0 -61 1 -61 1 0
1 11 27 25 57 30 65 37 135 20 193 -7 24 -9 48 -4 56 5 8 4 29 -1 47 -8 29 -7
32 28 50 83 42 118 107 107 198 -3 27 -7 55 -10 63 -2 8 -6 26 -9 40 -10 49
-14 68 -45 173 -17 59 -51 162 -76 230 -25 67 -47 129 -49 137 -2 9 -18 44
-34 78 -17 34 -29 62 -26 62 3 0 -81 164 -126 245 -42 76 -133 210 -206 305
-141 184 -307 335 -471 426 -35 20 -63 37 -63 38 0 2 10 3 23 3 44 -2 122 15
146 30 l24 16 -24 18 c-16 13 -19 19 -9 19 28 0 152 -39 185 -59 27 -16 36
-17 45 -7 5 8 9 22 7 32 -5 28 -39 96 -59 118 -10 11 -18 23 -18 26 0 3 19 15
43 27 78 38 134 96 118 121 -6 10 -14 10 -37 1 -26 -10 -147 -14 -184 -6 -21
4 -93 29 -104 35 -4 2 14 25 40 51 77 73 111 120 153 206 34 71 47 109 67 205
13 62 2 228 -20 305 -2 6 -6 23 -11 38 -25 92 -103 216 -184 295 -57 55 -180
142 -200 142 -6 0 -11 5 -11 10 0 6 -8 10 -18 10 -10 0 -22 4 -28 8 -13 12
-117 48 -189 66 -52 13 -95 18 -245 30 -14 1 -53 -1 -88 -5z m-825 -769 c3
-10 2 -11 -4 -4 -4 6 -15 14 -23 17 -11 5 -9 6 4 4 11 -1 21 -9 23 -17z m-52
0 c-3 -5 -12 -10 -18 -10 -7 0 -6 4 3 10 19 12 23 12 15 0z m339 -374 c-10 -8
-21 -12 -24 -10 -5 6 21 24 34 24 6 0 1 -6 -10 -14z m-86 -42 c-3 -14 -5 -12
-10 9 -3 19 -2 25 4 19 6 -6 8 -18 6 -28z m77 -44 c3 -5 1 -10 -4 -10 -6 0
-11 5 -11 10 0 6 2 10 4 10 3 0 8 -4 11 -10z m632 4 c-3 -3 -12 -4 -19 -1 -8
3 -5 6 6 6 11 1 17 -2 13 -5z m-693 -19 c3 -8 1 -15 -4 -15 -6 0 -10 7 -10 15
0 8 2 15 4 15 2 0 6 -7 10 -15z m8 -35 c2 -5 17 -11 33 -13 17 -2 35 -6 40 -9
41 -25 242 -27 355 -3 47 10 94 15 88 10 -3 -3 -15 -8 -27 -10 -13 -2 -30 -6
-39 -9 -80 -24 -275 -31 -351 -12 -31 8 -68 17 -82 20 -25 5 -49 36 -30 36 5
0 11 -4 13 -10z m695 -27 c-12 -3 -16 -10 -13 -20 5 -13 4 -13 -8 -4 -11 9
-20 4 -44 -24 -17 -19 -35 -50 -40 -69 -15 -54 -1 -172 26 -223 10 -19 9 -23
-8 -28 -11 -3 -20 -11 -20 -16 0 -5 -5 -9 -12 -9 -7 0 -3 9 8 21 21 20 21 21
2 87 -10 37 -18 85 -18 107 0 40 29 115 52 138 26 25 63 47 78 46 10 -1 10 -3
-3 -6z m613 -141 c0 -1 -9 2 -20 8 -11 6 -20 15 -20 20 0 6 9 2 20 -7 11 -10
20 -19 20 -21z m-759 -275 c-10 -9 -11 -8 -5 6 3 10 9 15 12 12 3 -3 0 -11 -7
-18z m299 -80 c0 -2 -12 -14 -27 -28 l-26 -24 19 27 c16 23 34 36 34 25z m-40
-121 c0 -2 -8 -10 -17 -17 -16 -13 -17 -12 -4 4 13 16 21 21 21 13z m-60 -60
c0 -2 -7 -7 -16 -10 -8 -3 -12 -2 -9 4 6 10 25 14 25 6z m-698 -81 c-2 -19 -6
-35 -8 -35 -2 0 -4 16 -4 35 0 19 4 35 8 35 4 0 6 -16 4 -35z m-5 -75 c1 -11
-1 -22 -5 -24 -4 -2 -8 7 -8 20 -1 13 1 24 5 24 4 0 7 -9 8 -20z m1518 -21 c9
-16 13 -29 11 -29 -3 0 1 -19 10 -41 8 -23 16 -54 19 -68 4 -23 19 -98 45
-213 4 -21 4 -36 0 -33 -5 3 -11 24 -15 48 -15 94 -65 282 -91 345 -17 40 0
33 21 -9z m-1528 -56 c-3 -10 -5 -4 -5 12 0 17 2 24 5 18 2 -7 2 -21 0 -30z
m-313 -11 c2 -4 -5 -9 -17 -9 -17 -2 -19 0 -7 7 18 12 18 12 24 2z m289 -73
c-11 -18 -25 -35 -31 -37 -7 -2 -1 13 13 33 14 21 26 45 26 54 1 15 2 15 6 0
2 -9 -4 -31 -14 -50z m-243 39 c0 -7 -5 -31 -12 -53 -6 -22 -11 -46 -9 -52 1
-7 -2 -13 -7 -13 -11 0 -25 107 -17 121 9 14 45 11 45 -3z m21 -102 c-6 -7 -7
-17 -3 -21 4 -5 1 -5 -6 -1 -9 6 -10 11 -3 20 6 7 7 17 3 21 -4 5 -1 5 6 1 9
-6 10 -11 3 -20z m-15 -58 c-3 -13 -5 -31 -5 -40 -1 -10 -5 -18 -11 -18 -6 0
-6 10 1 28 6 15 10 28 10 30 -3 8 0 22 4 22 3 0 3 -10 1 -22z m-22 -123 c-4
-8 -8 -15 -10 -15 -2 0 -4 7 -4 15 0 8 4 15 10 15 5 0 7 -7 4 -15z m1909 -60
c5 -28 4 -34 -3 -20 -8 19 -14 73 -6 64 2 -2 6 -22 9 -44z m-1923 -5 c0 -5 -2
-10 -4 -10 -3 0 -8 5 -11 10 -3 6 -1 10 4 10 6 0 11 -4 11 -10z m1937 -82 c3
-18 2 -30 -2 -26 -4 4 -9 22 -11 39 -5 42 6 31 13 -13z m-1817 10 c0 -4 -4 -8
-9 -8 -6 0 -12 4 -15 8 -3 5 1 9 9 9 8 0 15 -4 15 -9z m14 -34 c3 -8 2 -12 -4
-9 -6 3 -10 10 -10 16 0 14 7 11 14 -7z m385 -8 c-8 -8 -112 -36 -105 -28 4 4
24 12 44 18 38 12 69 17 61 10z m889 -5 c6 -1 12 -6 12 -11 0 -7 -6 -7 -19 -1
-10 6 -21 8 -24 5 -3 -3 -8 -1 -11 4 -3 6 2 9 11 7 10 -2 24 -4 31 -4z m53
-19 c-7 -2 -18 1 -23 6 -8 8 -4 9 13 5 13 -4 18 -8 10 -11z m-1526 -2 c-3 -5
-11 -10 -16 -10 -6 0 -7 5 -4 10 3 6 11 10 16 10 6 0 7 -4 4 -10z m1614 -6 c2
-2 -13 -3 -33 -2 -20 1 -36 5 -36 9 0 7 61 1 69 -7z m-1149 -6 c0 -6 -3 -8 -7
-5 -3 4 -11 3 -17 -3 -7 -5 -17 -5 -26 2 -12 8 -12 9 2 4 10 -3 20 -1 23 4 9
14 25 12 25 -2z m1187 6 c-3 -3 -12 -4 -19 -1 -8 3 -5 6 6 6 11 1 17 -2 13 -5z
m40 -10 c-3 -3 -12 -4 -19 -1 -8 3 -5 6 6 6 11 1 17 -2 13 -5z m-1552 -22 c-2
-3 -21 -6 -42 -8 -20 -1 -31 1 -25 5 14 8 75 11 67 3z m-85 -14 c0 -6 -3 -8
-7 -5 -3 4 -12 2 -20 -4 -8 -8 -13 -8 -13 -1 0 10 15 19 33 21 4 1 7 -4 7 -11z
m1070 -2 c0 -2 -7 -7 -16 -10 -8 -3 -12 -2 -9 4 6 10 25 14 25 6z m57 -2 c-3
-3 -12 -4 -19 -1 -8 3 -5 6 6 6 11 1 17 -2 13 -5z m830 -41 c-3 -10 -5 -2 -5
17 0 19 2 27 5 18 2 -10 2 -26 0 -35z m-2012 27 c-3 -5 -11 -10 -16 -10 -6 0
-36 -16 -67 -35 -34 -21 -45 -26 -29 -12 24 20 104 66 115 67 2 0 0 -4 -3 -10z
m612 4 c-2 -2 -13 -6 -23 -8 -11 -3 -38 -9 -61 -14 -25 -6 -43 -6 -43 -1 0 5
8 9 18 10 21 1 65 8 68 12 2 1 13 3 25 4 12 1 19 0 16 -3z m450 0 c-3 -3 -12
-4 -19 -1 -8 3 -5 6 6 6 11 1 17 -2 13 -5z m-617 -34 c0 -5 -10 -10 -22 -10
-19 0 -20 2 -8 10 19 13 30 13 30 0z m-55 -9 c-3 -3 -18 -6 -33 -8 -22 -2 -23
-1 -7 6 22 9 48 10 40 2z m1125 -16 c25 -10 54 -19 65 -21 11 -1 31 -6 45 -9
14 -3 49 -8 79 -11 70 -6 78 -13 15 -13 -66 0 -160 18 -211 40 -22 10 -44 15
-47 12 -3 -4 -6 -1 -6 6 0 7 -5 9 -11 5 -6 -3 -47 -8 -92 -11 -45 -2 -101 -5
-124 -7 -24 -1 -43 1 -43 6 0 4 28 8 63 9 81 1 170 8 176 15 7 7 33 1 91 -21z
m-790 -5 c0 -5 -7 -7 -15 -4 -8 4 -15 8 -15 10 0 2 7 4 15 4 8 0 15 -4 15 -10z
m164 2 c2 -4 -4 -8 -14 -8 -10 0 -16 4 -14 8 3 4 9 8 14 8 5 0 11 -4 14 -8z
m46 2 c0 -8 -19 -13 -24 -6 -3 5 1 9 9 9 8 0 15 -2 15 -3z m70 0 c0 -8 -19
-13 -24 -6 -3 5 1 9 9 9 8 0 15 -2 15 -3z m43 -1 c-7 -2 -19 -2 -25 0 -7 3 -2
5 12 5 14 0 19 -2 13 -5z m127 -1 c0 -4 -19 -6 -42 -4 -71 5 -77 10 -15 11 31
0 57 -2 57 -7z m2067 -14 c-3 -8 -6 -5 -6 6 -1 11 2 17 5 13 3 -3 4 -12 1 -19z
m-1230 -23 c0 -8 -4 -12 -9 -9 -5 3 -6 10 -3 15 9 13 12 11 12 -6z m23 -60 c0
-5 -5 -3 -10 5 -5 8 -10 20 -10 25 0 6 5 3 10 -5 5 -8 10 -19 10 -25z m1218
-586 c-1 -454 2 -623 11 -632 6 -6 11 -15 11 -19 0 -16 -23 -8 -42 15 -17 18
-19 30 -13 72 4 28 8 66 9 85 1 20 4 40 7 45 2 6 4 245 4 533 -1 287 2 522 6
522 4 0 7 -279 7 -621z m-1205 539 c2 -13 8 -31 12 -40 4 -10 3 -18 -2 -18 -5
0 -10 6 -10 13 -1 6 -6 27 -11 45 -6 18 -7 30 -3 27 5 -2 11 -15 14 -27z
m2113 -43 c-1 -8 -5 -17 -8 -21 -5 -4 -4 16 1 34 3 9 9 -1 7 -13z m-3771 -75
c28 -12 60 -24 73 -26 12 -2 32 -6 45 -8 12 -3 40 -7 62 -11 22 -3 50 -8 63
-10 18 -3 26 3 37 28 7 17 11 37 8 44 -3 8 0 11 8 9 29 -11 278 -26 468 -30
78 -1 144 -5 147 -9 12 -12 12 -244 0 -303 -12 -61 -13 -106 -2 -146 8 -29 78
-81 131 -98 37 -12 38 -14 16 -22 -12 -4 -37 -11 -54 -14 -18 -3 -57 -12 -87
-22 -30 -9 -57 -16 -60 -17 -13 -1 -102 -29 -160 -51 -36 -13 -73 -24 -81 -24
-9 0 -19 -3 -23 -7 -4 -5 -11 -8 -14 -9 -4 0 -16 -4 -27 -9 -11 -4 -42 -17
-70 -28 -27 -10 -61 -24 -75 -30 -14 -6 -27 -11 -30 -12 -3 -1 -21 -8 -40 -16
-19 -7 -38 -12 -42 -11 -5 1 -8 -3 -8 -8 0 -6 -7 -10 -15 -10 -8 0 -23 -4 -33
-9 -14 -8 -34 -16 -62 -26 -10 -3 -115 -53 -185 -87 -190 -92 -237 -154 -237
-313 0 -49 2 -108 5 -130 8 -58 17 -116 22 -150 3 -16 8 -50 11 -75 6 -47 10
-70 18 -106 2 -12 7 -37 10 -55 11 -64 16 -94 28 -149 7 -30 12 -62 13 -70 1
-8 4 -26 8 -40 8 -31 48 -200 52 -220 4 -16 43 -174 50 -200 2 -8 4 -16 5 -17
3 -4 5 -12 14 -63 5 -25 17 -54 27 -66 16 -17 17 -23 6 -36 -17 -22 -117 -53
-217 -68 -47 -7 -105 -22 -130 -35 l-45 -22 -39 96 c-21 53 -42 105 -46 116
-4 11 -18 47 -30 80 -12 33 -26 69 -31 80 -16 36 -108 293 -120 337 -15 53
-14 50 -22 68 -3 8 -18 53 -33 100 -15 47 -35 103 -45 124 -16 36 -16 43 -3
68 8 15 12 28 8 28 -4 0 -2 6 3 13 6 6 16 30 23 52 7 22 15 45 19 50 3 6 6 15
8 20 1 6 29 82 63 170 34 88 62 165 63 170 3 10 104 292 133 368 8 20 20 54
28 75 8 20 25 66 40 102 84 214 100 313 58 369 l-22 31 36 37 c46 49 118 171
134 228 11 39 16 44 44 47 17 2 36 -2 41 -9 6 -7 33 -22 60 -33z m1703 -45
c12 -44 19 -82 16 -84 -2 -2 -4 1 -4 8 0 7 -5 9 -12 5 -6 -4 -8 -3 -5 2 3 6 1
30 -4 55 -6 24 -13 55 -15 68 -3 14 -8 29 -11 35 -4 7 -2 8 4 1 6 -5 20 -46
31 -90z m2059 30 c-1 -13 -6 -27 -9 -31 -4 -3 -5 2 -3 13 2 10 4 24 4 31 1 6
3 12 6 12 3 0 4 -11 2 -25z m-10 -67 c-3 -8 -6 -5 -6 6 -1 11 2 17 5 13 3 -3
4 -12 1 -19z m457 -12 c-6 -15 -34 -31 -34 -19 0 5 30 32 37 33 1 0 0 -6 -3
-14z m-44 -26 c0 -5 -4 -10 -9 -10 -4 0 -69 -29 -142 -64 -74 -34 -152 -71
-174 -81 -22 -10 -44 -20 -50 -23 -5 -3 -3 2 5 10 16 16 192 98 209 98 6 0 11
5 11 12 0 6 3 9 6 6 3 -4 35 9 72 28 77 39 72 37 72 24z m-414 -36 c1 -9 0
-13 -4 -10 -3 4 -7 14 -8 22 -1 9 0 13 4 10 3 -4 7 -14 8 -22z m-2016 1 c0 -9
-6 -12 -15 -9 -8 4 -15 10 -15 15 0 5 7 9 15 9 8 0 15 -7 15 -15z m9 -62 c5
-21 12 -51 15 -68 3 -16 10 -55 16 -85 6 -30 13 -73 16 -95 3 -22 9 -52 14
-67 5 -16 5 -28 1 -28 -9 0 -19 39 -27 100 -4 32 -9 56 -21 100 -3 8 -6 29 -8
45 -1 17 -4 32 -5 35 -5 8 -8 24 -9 43 -1 12 -5 16 -13 11 -10 -6 -10 -5 -1 7
10 12 10 18 1 27 -9 9 -9 12 0 12 6 0 16 -17 21 -37z m1998 5 c-3 -7 -5 -2 -5
12 0 14 2 19 5 13 2 -7 2 -19 0 -25z m430 -30 c2 -18 0 -20 -7 -8 -12 18 -13
30 -2 30 4 0 9 -10 9 -22z m-4564 5 c-7 -2 -19 -2 -25 0 -7 3 -2 5 12 5 14 0
19 -2 13 -5z m-250 -16 c3 -8 -1 -14 -9 -14 -15 0 -18 9 -7 20 9 9 10 9 16 -6z
m4380 -17 c-3 -12 -8 -19 -11 -16 -5 6 5 36 12 36 2 0 2 -9 -1 -20z m-6 -62
c-3 -7 -5 -2 -5 12 0 14 2 19 5 13 2 -7 2 -19 0 -25z m450 0 c-3 -7 -5 -2 -5
12 0 14 2 19 5 13 2 -7 2 -19 0 -25z m-4576 -65 c-16 -43 -69 -170 -116 -283
-48 -113 -87 -209 -89 -215 -1 -5 -9 -26 -18 -45 -14 -32 -54 -128 -73 -175
-5 -11 -7 -23 -7 -27 1 -5 -3 -8 -8 -8 -12 0 -13 17 -1 24 5 3 12 18 16 33 3
16 20 56 36 91 16 35 29 65 29 67 0 4 165 404 194 470 7 17 23 58 37 92 13 34
25 60 27 58 2 -2 -10 -39 -27 -82z m4582 7 c-7 -27 -13 -25 -11 4 1 14 5 23 9
20 4 -2 5 -13 2 -24z m-12 -53 c-10 -9 -11 -8 -5 6 3 10 9 15 12 12 3 -3 0
-11 -7 -18z m-23 -92 c-6 -14 -13 -23 -15 -21 -5 5 15 46 22 46 3 0 -1 -11 -7
-25z m-27 -58 c-10 -9 -11 -8 -5 6 3 10 9 15 12 12 3 -3 0 -11 -7 -18z m-2094
-30 c-3 -10 -23 -13 -138 -21 -66 -4 -79 -10 -79 -37 0 -38 -51 -128 -93 -165
-64 -55 -228 -123 -338 -139 -14 -2 -53 -11 -85 -19 -32 -8 -75 -17 -94 -20
-19 -2 -45 -7 -56 -9 -12 -3 -37 -8 -55 -11 -70 -12 -95 -17 -139 -26 -25 -5
-124 -24 -220 -41 -233 -41 -222 -39 -234 -46 -8 -4 -8 -2 -1 5 6 6 28 14 50
18 22 3 48 10 58 15 9 5 17 8 17 5 0 -2 17 0 38 5 152 37 229 52 269 53 17 1
29 4 26 9 -2 4 6 7 19 8 13 0 30 2 38 4 8 2 31 7 50 11 19 4 49 8 67 8 17 1
29 5 26 10 -3 5 8 7 25 4 19 -3 29 -1 25 6 -4 5 1 7 10 3 9 -3 19 -2 23 4 4 6
12 5 22 -3 13 -11 14 -11 7 1 -6 11 -3 13 13 9 12 -4 20 -2 16 3 -3 5 5 10 18
10 13 1 34 2 48 3 14 0 27 3 30 7 3 3 32 10 65 17 97 18 101 19 159 48 39 19
52 30 44 36 -10 6 -8 8 5 8 37 0 125 107 135 165 2 11 5 27 6 35 2 8 11 16 22
17 10 1 44 5 74 8 31 3 69 9 85 14 33 9 48 5 42 -12z m2063 -21 c0 -2 -8 -10
-17 -17 -16 -13 -17 -12 -4 4 13 16 21 21 21 13z m-49 -59 c-10 -9 -11 -8 -5
6 3 10 9 15 12 12 3 -3 0 -11 -7 -18z m-2512 -72 c0 -5 -6 1 -14 15 -8 14 -14
30 -14 35 0 6 6 -1 14 -15 8 -14 14 -29 14 -35z m22 -32 c13 -16 12 -17 -3 -4
-10 7 -18 15 -18 17 0 8 8 3 21 -13z m-2781 -307 c0 -2 -8 -10 -17 -17 -16
-13 -17 -12 -4 4 13 16 21 21 21 13z m3880 -6 c0 -5 -5 -10 -11 -10 -5 0 -7 5
-4 10 3 6 8 10 11 10 2 0 4 -4 4 -10z m117 -6 c-3 -3 -12 -4 -19 -1 -8 3 -5 6
6 6 11 1 17 -2 13 -5z m56 -1 c-7 -2 -21 -2 -30 0 -10 3 -4 5 12 5 17 0 24 -2
18 -5z m70 0 c-7 -2 -19 -2 -25 0 -7 3 -2 5 12 5 14 0 19 -2 13 -5z m50 0 c-7
-2 -19 -2 -25 0 -7 3 -2 5 12 5 14 0 19 -2 13 -5z m80 0 c-7 -2 -21 -2 -30 0
-10 3 -4 5 12 5 17 0 24 -2 18 -5z m80 0 c-7 -2 -21 -2 -30 0 -10 3 -4 5 12 5
17 0 24 -2 18 -5z m110 0 c-7 -2 -21 -2 -30 0 -10 3 -4 5 12 5 17 0 24 -2 18
-5z m44 1 c-3 -3 -12 -4 -19 -1 -8 3 -5 6 6 6 11 1 17 -2 13 -5z m70 0 c-3 -3
-12 -4 -19 -1 -8 3 -5 6 6 6 11 1 17 -2 13 -5z m76 -1 c-7 -2 -19 -2 -25 0 -7
3 -2 5 12 5 14 0 19 -2 13 -5z m50 0 c-7 -2 -19 -2 -25 0 -7 3 -2 5 12 5 14 0
19 -2 13 -5z m44 1 c-3 -3 -12 -4 -19 -1 -8 3 -5 6 6 6 11 1 17 -2 13 -5z m40
0 c-3 -3 -12 -4 -19 -1 -8 3 -5 6 6 6 11 1 17 -2 13 -5z m40 0 c-3 -3 -12 -4
-19 -1 -8 3 -5 6 6 6 11 1 17 -2 13 -5z m70 0 c-3 -3 -12 -4 -19 -1 -8 3 -5 6
6 6 11 1 17 -2 13 -5z m76 -1 c-7 -2 -19 -2 -25 0 -7 3 -2 5 12 5 14 0 19 -2
13 -5z m50 0 c-7 -2 -19 -2 -25 0 -7 3 -2 5 12 5 14 0 19 -2 13 -5z m44 1 c-3
-3 -12 -4 -19 -1 -8 3 -5 6 6 6 11 1 17 -2 13 -5z m106 -1 c-7 -2 -19 -2 -25
0 -7 3 -2 5 12 5 14 0 19 -2 13 -5z m80 0 c-7 -2 -19 -2 -25 0 -7 3 -2 5 12 5
14 0 19 -2 13 -5z m80 0 c-7 -2 -19 -2 -25 0 -7 3 -2 5 12 5 14 0 19 -2 13 -5z
m80 0 c-7 -2 -19 -2 -25 0 -7 3 -2 5 12 5 14 0 19 -2 13 -5z m44 1 c-3 -3 -12
-4 -19 -1 -8 3 -5 6 6 6 11 1 17 -2 13 -5z m-3727 -28 c0 -2 -11 -6 -25 -8
-13 -3 -22 -1 -19 3 5 9 44 13 44 5z m-1205 -38 c-25 -56 -105 -267 -105 -278
0 -5 -4 -10 -9 -10 -8 0 11 62 43 135 7 17 26 65 42 108 16 42 32 77 36 77 4
0 1 -15 -7 -32z m1085 12 c-8 -5 -19 -10 -25 -10 -5 0 -3 5 5 10 8 5 20 10 25
10 6 0 3 -5 -5 -10z m-2279 -76 c-16 -32 -27 -62 -25 -66 3 -4 0 -8 -6 -8 -15
0 -5 32 28 92 37 66 39 52 3 -18z m2179 62 c0 -2 -7 -7 -16 -10 -8 -3 -12 -2
-9 4 6 10 25 14 25 6z m-70 -19 c-19 -6 -39 -16 -43 -21 -5 -7 -7 -6 -5 4 4
14 38 28 68 28 8 0 -1 -5 -20 -11z m-1530 -1 c0 -2 -8 -10 -17 -17 -16 -13
-17 -12 -4 4 13 16 21 21 21 13z m3850 -6 c0 -3 -30 -6 -67 -6 -37 0 -58 2
-49 6 22 7 116 8 116 0z m60 3 c0 -5 -11 -9 -25 -9 -14 -1 -22 2 -19 7 6 11
44 12 44 2z m35 -3 c3 -5 -1 -10 -10 -10 -9 0 -13 5 -10 10 3 6 8 10 10 10 2
0 7 -4 10 -10z m-245 -10 c-8 -5 -19 -10 -25 -10 -5 0 -3 5 5 10 8 5 20 10 25
10 6 0 3 -5 -5 -10z m-2569 -23 c-10 -9 -11 -8 -5 6 3 10 9 15 12 12 3 -3 0
-11 -7 -18z m-1181 -21 c0 -2 -8 -10 -17 -17 -16 -13 -17 -12 -4 4 13 16 21
21 21 13z m1184 -101 c4 -27 9 -62 12 -77 2 -16 1 -28 -4 -28 -4 0 -8 10 -9
23 0 12 -4 49 -8 82 -4 33 -5 58 -2 55 3 -3 8 -27 11 -55z m2290 47 c2 -4 -5
-9 -17 -9 -17 -2 -19 0 -7 7 18 12 18 12 24 2z m100 0 c2 -4 -7 -8 -22 -9 -24
-2 -24 -1 -7 7 11 5 21 9 22 9 1 1 4 -3 7 -7z m-1754 -12 c0 -17 41 -101 78
-159 44 -69 92 -166 99 -200 8 -37 8 -158 0 -208 -3 -23 -18 -73 -34 -112 -26
-68 -43 -83 -43 -38 0 12 -14 74 -30 137 -17 63 -42 178 -55 255 -33 195 -35
204 -52 255 -24 73 -24 76 8 78 16 1 29 -2 29 -8z m-2387 -20 c-3 -12 -8 -19
-11 -16 -5 6 5 36 12 36 2 0 2 -9 -1 -20z m494 -5 c0 -8 -4 -12 -9 -9 -5 3 -6
10 -3 15 9 13 12 11 12 -6z m3948 -5 c-3 -5 -12 -7 -20 -3 -21 7 -19 13 6 13
11 0 18 -4 14 -10z m-924 -78 c-47 -16 -195 -88 -251 -123 -35 -21 -35 -21
-10 0 14 12 72 45 130 74 134 66 153 74 165 68 5 -2 -10 -11 -34 -19z m-1375
-38 c1 -9 0 -13 -4 -10 -3 4 -7 14 -8 22 -1 9 0 13 4 10 3 -4 7 -14 8 -22z
m2704 16 c0 -5 -4 -10 -9 -10 -6 0 -13 5 -16 10 -3 6 1 10 9 10 9 0 16 -4 16
-10z m44 -29 c-5 -6 -34 20 -34 30 0 5 8 1 18 -8 10 -10 17 -20 16 -22z
m-3774 5 c0 -3 -4 -8 -10 -11 -5 -3 -10 -1 -10 4 0 6 5 11 10 11 6 0 10 -2 10
-4z m-21 -56 c-6 -16 -16 -30 -22 -30 -7 0 -7 4 1 12 7 7 12 20 12 30 0 10 4
18 9 18 6 0 6 -12 0 -30z m685 -67 c2 -24 1 -42 -2 -39 -3 4 -6 14 -7 24 -1 9
-4 40 -8 67 -5 37 -4 43 3 21 5 -15 11 -48 14 -73z m3217 80 c13 -17 13 -17
-6 -3 -11 8 -22 16 -24 17 -2 2 0 3 6 3 6 0 17 -8 24 -17z m-3946 -133 c-13
-36 -24 -60 -24 -54 -1 17 42 139 46 129 1 -6 -8 -39 -22 -75z m2174 67 c-2
-1 -13 -9 -24 -17 -19 -14 -19 -14 -6 3 7 9 18 17 24 17 6 0 8 -1 6 -3z
m-1429 -107 c0 -5 -2 -10 -4 -10 -3 0 -8 5 -11 10 -3 6 -1 10 4 10 6 0 11 -4
11 -10z m1380 6 c0 -2 -8 -10 -17 -17 -16 -13 -17 -12 -4 4 13 16 21 21 21 13z
m-1373 -64 c2 -23 1 -24 -7 -7 -11 24 -13 51 -3 41 4 -4 8 -19 10 -34z m1298
-13 c-50 -56 -116 -160 -153 -241 -17 -38 -29 -68 -27 -68 3 0 0 -12 -6 -27
-24 -64 -55 -275 -51 -348 1 -15 -1 -16 -7 -6 -5 8 -7 25 -5 40 1 14 5 55 8
91 5 66 31 205 42 221 3 5 7 20 10 34 11 62 116 236 187 313 44 46 46 40 2 -9z
m-1288 -34 c0 -8 -4 -12 -9 -9 -5 3 -6 10 -3 15 9 13 12 11 12 -6z m9 -47 c0
-13 3 -36 6 -53 16 -80 19 -100 9 -79 -5 12 -12 34 -14 50 -3 16 -8 46 -12 67
-4 20 -3 37 1 37 5 0 9 -10 10 -22z m34 -168 c0 -5 -5 -10 -11 -10 -5 0 -7 5
-4 10 3 6 8 10 11 10 2 0 4 -4 4 -10z m14 -90 c4 -24 3 -29 -3 -15 -4 11 -11
36 -15 55 -4 24 -3 29 3 15 4 -11 11 -36 15 -55z m2511 20 c-3 -5 -16 -10 -28
-9 -20 1 -20 2 3 9 14 4 26 8 28 9 2 1 0 -3 -3 -9z m-3788 -200 c55 -80 132
-190 173 -245 41 -55 73 -102 71 -104 -1 -2 1 -7 6 -10 5 -3 33 -37 61 -76 29
-38 56 -74 60 -80 128 -167 293 -407 286 -414 -4 -3 -11 2 -18 12 -18 30 -215
311 -229 327 -7 8 -28 38 -47 65 -19 28 -37 52 -41 55 -3 3 -18 23 -35 45 -16
22 -32 44 -37 50 -39 53 -97 136 -97 140 0 3 -8 15 -18 25 -10 11 -40 53 -67
92 -27 40 -52 75 -55 78 -3 3 -27 39 -55 80 -27 41 -53 77 -57 78 -4 2 -8 10
-8 18 0 8 -4 14 -9 14 -5 0 -12 8 -15 18 -14 36 33 -24 131 -168z m1294 120
c4 -56 84 -306 105 -327 8 -8 11 -19 8 -25 -4 -6 -16 9 -27 33 -22 48 -84 244
-93 293 -3 16 -7 33 -10 38 -3 4 0 8 5 8 6 0 12 -9 12 -20z m-1951 -190 c8 -5
11 -10 5 -10 -5 0 -17 5 -25 10 -8 5 -10 10 -5 10 6 0 17 -5 25 -10z m75 -20
c3 -6 -1 -7 -9 -4 -18 7 -21 14 -7 14 6 0 13 -4 16 -10z m82 -26 c-3 -3 -12
-4 -19 -1 -8 3 -5 6 6 6 11 1 17 -2 13 -5z m2303 -35 c-42 -12 -57 -8 -25 6
17 7 34 10 40 7 5 -3 -1 -9 -15 -13z m-2190 1 c0 -5 -7 -7 -15 -4 -8 4 -15 8
-15 10 0 2 7 4 15 4 8 0 15 -4 15 -10z m2037 -32 c-14 -8 -27 -1 -27 15 0 7 4
6 10 -3 8 -12 10 -12 10 5 0 16 2 17 10 5 6 -9 5 -17 -3 -22z m48 10 c-9 -6
-19 -7 -22 -4 -4 3 -1 6 6 6 7 0 9 4 6 10 -4 6 1 7 11 3 15 -6 15 -7 -1 -15z
m-95 -8 c8 -5 11 -10 5 -10 -5 0 -17 5 -25 10 -8 5 -10 10 -5 10 6 0 17 -5 25
-10z m-40 -11 c12 -8 10 -9 -9 -4 -14 4 -21 3 -18 -2 4 -6 -6 -9 -21 -8 -15 1
-30 -3 -34 -9 -5 -7 -8 -4 -8 7 0 13 6 16 25 13 13 -3 27 0 30 5 8 12 16 11
35 -2z m-106 -21 c-3 -5 -10 -6 -15 -3 -5 4 -9 1 -9 -5 0 -6 -4 -8 -10 -5 -18
11 -11 21 14 21 14 0 22 -4 20 -8z m-1609 -46 c-3 -3 -11 0 -18 7 -9 10 -8 11
6 5 10 -3 15 -9 12 -12z m129 -51 c4 -5 -3 -7 -14 -4 -23 6 -26 13 -6 13 8 0
17 -4 20 -9z m1420 -145 c-3 -7 -17 -19 -32 -27 -15 -8 -29 -16 -32 -19 -7 -8
-90 -39 -90 -34 0 3 29 18 64 34 35 16 69 36 76 45 15 19 21 19 14 1z m-1984
-31 c0 -8 -4 -15 -10 -15 -5 0 -7 7 -4 15 4 8 8 15 10 15 2 0 4 -7 4 -15z
m-25 -64 c-8 -16 -11 -32 -7 -36 4 -5 1 -5 -5 -1 -10 6 -10 13 2 35 8 16 11
32 7 36 -4 5 -1 5 5 1 10 -6 10 -13 -2 -35z m-12 -57 c-7 -3 -9 -13 -6 -22 4
-14 3 -14 -5 -2 -12 16 -7 30 11 29 9 0 9 -2 0 -5z m4322 -30 c9 -15 12 -23 6
-20 -11 7 -35 46 -28 46 3 0 12 -12 22 -26z m-1868 10 c-3 -3 -12 -4 -19 -1
-8 3 -5 6 6 6 11 1 17 -2 13 -5z m2199 -29 c-4 -14 -16 -37 -29 -51 -23 -27
-87 -64 -109 -64 -7 1 5 10 27 21 50 25 92 65 99 95 4 13 9 24 12 24 4 0 3
-11 0 -25z m-2366 -1 c0 -8 -19 -13 -24 -6 -3 5 1 9 9 9 8 0 15 -2 15 -3z
m-123 -20 c-3 -3 -12 -4 -19 -1 -8 3 -5 6 6 6 11 1 17 -2 13 -5z m-70 -10 c-3
-3 -12 -4 -19 -1 -8 3 -5 6 6 6 11 1 17 -2 13 -5z m-1939 -49 c-3 -3 -9 2 -12
12 -6 14 -5 15 5 6 7 -7 10 -15 7 -18z m79 19 c-3 -3 -12 -4 -19 -1 -8 3 -5 6
6 6 11 1 17 -2 13 -5z m37 -2 c3 -5 -1 -9 -9 -9 -8 0 -12 4 -9 9 3 4 7 8 9 8
2 0 6 -4 9 -8z m83 2 c-3 -3 -12 -4 -19 -1 -8 3 -5 6 6 6 11 1 17 -2 13 -5z
m1486 -1 c-7 -2 -21 -2 -30 0 -10 3 -4 5 12 5 17 0 24 -2 18 -5z m-1526 -9
c-3 -3 -12 -4 -19 -1 -8 3 -5 6 6 6 11 1 17 -2 13 -5z m1473 2 c0 -2 -13 -6
-29 -8 -17 -2 -28 -1 -25 4 5 8 54 12 54 4z m2709 -50 c-7 -7 -54 -14 -133
-21 -39 -3 -68 -3 -65 0 3 3 35 8 70 11 78 6 110 11 117 19 3 3 8 3 10 0 3 -3
3 -7 1 -9z m-3368 -38 c7 -13 15 -25 18 -28 12 -10 87 -105 104 -133 16 -25
22 -27 65 -22 92 10 147 17 177 22 17 3 41 6 55 8 14 2 45 6 70 9 25 3 63 8
85 10 55 7 115 15 145 20 14 3 48 7 75 11 28 3 90 13 139 21 168 29 182 30
311 19 39 -3 348 -5 687 -5 l617 1 6 -28 c20 -100 31 -135 62 -193 35 -66 142
-178 196 -206 15 -8 27 -16 27 -17 0 -1 -540 -2 -1200 -2 -660 1 -1200 -2
-1200 -5 0 -3 -127 -6 -283 -7 -155 -2 -324 -5 -375 -7 -51 -2 -95 1 -98 5 -3
5 0 9 7 9 13 0 159 147 159 161 0 4 6 14 14 21 43 44 105 223 107 311 2 51 12
60 30 25z m3083 14 c2 -4 -7 -8 -22 -9 -24 -2 -24 -1 -7 7 11 5 21 9 22 9 1 1
4 -3 7 -7z m71 -1 c-9 -8 -36 -10 -30 -2 2 4 11 8 20 8 8 0 13 -3 10 -6z
m-751 -9 c2 -4 -5 -9 -17 -9 -17 -2 -19 0 -7 7 18 12 18 12 24 2z m121 -3 c2
-3 -8 -5 -25 -5 -16 0 -27 3 -25 6 5 8 42 6 50 -1z m230 1 c-3 -5 -12 -10 -18
-10 -7 0 -6 4 3 10 19 12 23 12 15 0z m72 3 c-9 -8 -57 -13 -57 -6 0 5 14 9
31 9 16 1 28 0 26 -3z m83 -3 c0 -4 -7 -7 -15 -6 -23 3 -26 12 -5 13 11 1 20
-2 20 -7z m54 -1 c-4 -7 -44 0 -44 7 0 2 11 3 24 2 14 -1 23 -5 20 -9z m63 5
c-3 -3 -12 -4 -19 -1 -8 3 -5 6 6 6 11 1 17 -2 13 -5z m-3130 -66 c-3 -8 -6
-5 -6 6 -1 11 2 17 5 13 3 -3 4 -12 1 -19z m3733 -41 c0 -2 -10 -12 -22 -23
l-23 -19 19 23 c18 21 26 27 26 19z m497 -19 c-3 -8 -6 -5 -6 6 -1 11 2 17 5
13 3 -3 4 -12 1 -19z m-3927 8 c0 -2 -7 -7 -16 -10 -8 -3 -12 -2 -9 4 6 10 25
14 25 6z m2870 -6 c0 -5 -2 -10 -4 -10 -3 0 -8 5 -11 10 -3 6 -1 10 4 10 6 0
11 -4 11 -10z m65 -45 l20 -16 -20 10 c-11 5 -29 17 -40 26 l-20 16 20 -10
c11 -5 29 -17 40 -26z m440 15 c-3 -5 -12 -10 -18 -10 -7 0 -6 4 3 10 19 12
23 12 15 0z m-95 -40 c-8 -5 -19 -10 -25 -10 -5 0 -3 5 5 10 8 5 20 10 25 10
6 0 3 -5 -5 -10z m-65 -10 c3 -5 -1 -10 -10 -10 -9 0 -13 5 -10 10 3 6 8 10
10 10 2 0 7 -4 10 -10z"/>
</g>
</svg>
